<ttFont>
          <CharString index="0">
            414 195 rmoveto
            -91 callgsubr
            -154 -15 -3 -26 -5 -20 -10 -31 rlinecurve
            -99 callgsubr
            -111 338 -85 callgsubr
            return
          </CharString>
          <CharString index="1">
            49 339 rmoveto
            -193 132 -158 217 -45 callsubr
            184 -116 162 -227 -44 callsubr
            vhcurveto
            575 2 -64 callgsubr
            -177 -59 144 151 111 30 89 39 40 hvcurveto
            13 21 57 14 52 hhcurveto
            171 54 -135 -155 hvcurveto
            return
          </CharString>
          <CharString index="2">
            rmoveto
            141 -114 36 -156 vhcurveto
            -72 -41 -2 -30 hhcurveto
            -26 -58 1 1 -14 -53 callgsubr
            -7 -70 -13 -34 -10 callgsubr
            -12 39 -4 72 39 vvcurveto
            139 vlineto
            -1 5 7 0 5 hhcurveto
            180 -219 44 -56 13 -17 12 -18 rlinecurve
            175 24 hlineto
            -36 11 -41 23 -107 125 -114 133 rcurveline
            126 12 83 80 115 vvcurveto
            -283 112 rmoveto
            97 38 -28 -94 -89 -35 -53 -112 -13 -21 0 3 -23 hvcurveto
            174 0 56 2 30 vhcurveto
            2 24 27 -1 16 hhcurveto
            return
          </CharString>
          <CharString index="3">
            44 230 rmoveto
            -67 callgsubr
            148 -80 100 -172 -52 callsubr
            vhcurveto
            376 -2 -95 callgsubr
            return
          </CharString>
          <CharString index="4">
            676 491 rmoveto
            36 6 118 10 34 vhcurveto
            21 -143 3 callsubr
            -76 1 -50 -116 vvcurveto
            -201 -3 -83 -37 -55 vhcurveto
            -14 -22 -50 -12 -53 hhcurveto
            -154 -15 101 150 hvcurveto
            123 vlineto
            113 5 62 9 58 vhcurveto
            -19 callgsubr
            10 -34 6 -115 -54 vvcurveto
            -198 vlineto
            -199 84 -89 217 198 88 74 249 vhcurveto
            return
          </CharString>
          <CharString index="5">
            -55 callsubr
            -102 callgsubr
            -25 callgsubr
            return
          </CharString>
          <CharString index="6">
            -9 callsubr
            204 148 vstem
            622 523 -105 callsubr
            return
          </CharString>
          <CharString index="7">
            hstem
            49 -33 callsubr
            vstem
            -106 callsubr
            return
          </CharString>
          <CharString index="8">
            hstem
            44 -38 callsubr
            vstem
            -104 callsubr
            return
          </CharString>
          <CharString index="9">
            469 rmoveto
            37 6 138 10 34 -75 callsubr
            -249 vlineto
            -85 -7 -89 -37 callgsubr
            174 -39 callgsubr
            -7 89 85 vvcurveto
            return
          </CharString>
          <CharString index="10">
            rmoveto
            -58 50 -63 73 -38 65 -49 -17 -26 -22 -25 -36 26 -23 35 -28 36 -26 41 -29 44 -26 40 -20 rrcurveto
            endchar
          </CharString>
          <CharString index="11">
            -38 callgsubr
            hintmask 01111000
            -36 callgsubr
            hintmask 10111000
            -97 callgsubr
            hintmask 01111000
            return
          </CharString>
          <CharString index="12">
            -43 -41 -37 -38 -69 hhcurveto
            -74 -85 44 104 109 93 30 110 hvcurveto
            89 -4 rlineto
            61 vlineto
            65 -31 51 -75 vhcurveto
            -35 -1 -59 -68 -35 -33 -26 31 -25 48 -3 40 rrcurveto
            return
          </CharString>
          <CharString index="13">
            338 200 rmoveto
            8 -22 -32 5 -28 hhcurveto
            -25 -22 -4 -12 -17 hvcurveto
            -12 -15 -3 -20 -15 vvcurveto
            -56 25 -22 43 39 34 21 25 20 vhcurveto
            13 -52 rmoveto
            return
          </CharString>
          <CharString index="14">
            3 37 10 12 11 rcurveline
            3 35 -6 return
          </CharString>
          <CharString index="15">
            -42 -72 43 -44 hhcurveto
            -36 -67 -72 -27 -22 hvcurveto
            29 -25 rlineto
            15 23 27 21 33 return
          </CharString>
          <CharString index="16">
            -4 -37 -10 -15 -11 rcurveline
            -27 9 return
          </CharString>
          <CharString index="17">
            -6 callgsubr
            -96 callgsubr
            return
          </CharString>
          <CharString index="18">
            382 -535 131 13 rlineto
            -5 17 -11 109 85 vvcurveto
            238 vlineto
            75 8 118 8 -12 callsubr
            -141 -22 vlineto
            13 -35 10 -98 -66 vvcurveto
            -263 vlineto
            -352 494 -158 -11 -42 callgsubr
            6 -35 7 -115 -75 vvcurveto
            -203 vlineto
            -85 -7 -108 -9 -34 vhcurveto
            return
          </CharString>
          <CharString index="19">
            -78 callsubr
            -52 callgsubr
            return
          </CharString>
          <CharString index="20">
            43 -34 callsubr
            248 -20 hstem
            125 -1 callsubr
            335 -102 callsubr
            return
          </CharString>
          <CharString index="21">
            478 hlineto
            18 -36 callsubr
            -45 -89 -13 -100 hhcurveto
            -29 -31 0 2 -19 hvcurveto
            -5 50 -1 61 22 vvcurveto
            267 vlineto
            36 6 131 10 35 -75 callsubr
            -259 vlineto
            -84 -7 -75 -9 -39 vhcurveto
            return
          </CharString>
          <CharString index="22">
            -92 callsubr
            hhcurveto
            return
          </CharString>
          <CharString index="23">
            -311 191 -83 callgsubr
            return
          </CharString>
          <CharString index="24">
            22 vlineto
            -12 34 -5 86 37 vvcurveto
            45 vlineto
            94 -104 30 -33 23 -28 17 -19 rlinecurve
            15 -16 5 -16 -8 vvcurveto
            190 22 hlineto
            -36 7 -62 57 -12 13 -180 193 rcurveline
            141 113 31 25 36 29 38 5 rlinecurve
            22 -157 -26 callgsubr
            194 vlineto
            32 -66 callsubr
            -67 -11 -35 callgsubr
            vlineto
            endchar
          </CharString>
          <CharString index="25">
            rmoveto
            -30 -21 -45 -14 -43 -6 8 -51 rcurveline
            29 1 39 4 22 5 rrcurveto
            2 -10 1 -29 -18 vvcurveto
            -168 vlineto
            -51 -3 -46 -7 -20 vhcurveto
            -4 123 4 vlineto
            -5 21 -4 45 56 vvcurveto
            233 vlineto
            26 2 26 1 17 vhcurveto
            return
          </CharString>
          <CharString index="26">
            2 18 38 0 24 hhcurveto
            49 50 -3 -5 24 hvcurveto
            19 hlineto
            35 83 -257 -5 rlineto
            28 0 return
          </CharString>
          <CharString index="27">
            233 -18 callsubr
            235 -20 -100 callsubr
            return
          </CharString>
          <CharString index="28">
            3 callgsubr
            878 -100 callgsubr
            return
          </CharString>
          <CharString index="29">
            128 rmoveto
            -27 -52 -60 -28 -46 hhcurveto
            -65 -63 49 101 -1 hvcurveto
            274 hlineto
            return
          </CharString>
          <CharString index="30">
            -84 callgsubr
            -49 callgsubr
            return
          </CharString>
          <CharString index="31">
            -82 callgsubr
            -29 609 -80 callgsubr
            endchar
          </CharString>
          <CharString index="32">
            vhcurveto
            22 -174 -37 callsubr
            7 -89 -76 vvcurveto
            return
          </CharString>
          <CharString index="33">
            417 rmoveto
            45 56 50 37 62 hhcurveto
            100 57 -63 -118 hvcurveto
            -127 vlineto
            -72 15 -62 15 -35 vhcurveto
            -22 -176 22 vlineto
            12 33 5 59 43 vvcurveto
            125 vlineto
            72 -12 41 -56 -46 -35 -17 -25 -42 vhcurveto
            -164 vlineto
            -70 14 -65 15 -32 vhcurveto
            -22 -175 22 vlineto
            12 36 5 61 45 vvcurveto
            134 vlineto
            86 -26 46 -34 17 vhcurveto
            22 vlineto
            162 31 11 -19 8 -24 1 -14 2 -26 rlinecurve
            return
          </CharString>
          <CharString index="34">
            rmoveto
            -51 -10 -77 -24 -34 vhcurveto
            -16 -19 -29 -5 -17 hhcurveto
            return
          </CharString>
          <CharString index="35">
            -165 -35 -42 callgsubr
            25 -24 20 -37 -68 vvcurveto
            -393 vlineto
            -44 return
          </CharString>
          <CharString index="36">
            179 rmoveto
            -60 14 -65 15 -32 vhcurveto
            -22 -178 22 vlineto
            12 36 5 61 38 vvcurveto
            148 vlineto
            79 -29 46 -31 17 vhcurveto
            22 vlineto
            186 34 12 -20 rlineto
            -6 -23 0 -42 -25 vvcurveto
            return
          </CharString>
          <CharString index="37">
            hstemhm
            44 -38 callsubr
            hintmask 11101100
            -104 callsubr
            return
          </CharString>
          <CharString index="38">
            200 375 rmoveto
            125 58 80 61 42 vhcurveto
            4 27 22 1 16 hhcurveto
            77 70 -19 -71 96 hvcurveto
            33 45 14 29 10 49 rrcurveto
            38 -80 -78 14 -68 hhcurveto
            -226 -183 -143 -229 -217 163 -135 186 124 91 58 36 55 hvcurveto
            32 21 -37 54 rlineto
            -30 -59 -90 -42 -71 hhcurveto
            -131 -112 98 192 hvcurveto
            return
          </CharString>
          <CharString index="39">
            753 356 rmoveto
            195 -161 160 -199 -199 -163 -161 -198 -198 163 -161 199 202 158 160 203 vhcurveto
            -78 -8 rmoveto
            -155 -129 -130 -153 -154 -127 130 159 158 127 131 154 157 125 -130 -163 vhcurveto
            return
          </CharString>
          <CharString index="40">
            16 18 27 6 25 hhcurveto
            100 26 -89 -117 hvcurveto
            return
          </CharString>
          <CharString index="41">
            0 135 3 28 vhcurveto
            -12 22 -72 callsubr
            -5 return
          </CharString>
          <CharString index="42">
            rmoveto
            -36 1 -38 -7 -37 -12 -9 -8 rcurveline
            -1 -27 7 -44 11 -19 11 -5 rcurveline
            40 2 32 6 36 10 9 8 rcurveline
            5 30 -7 48 17 callsubr
            return
          </CharString>
          <CharString index="43">
            rmoveto
            27 50 30 48 53 39 -59 callgsubr
            -41 40 -51 32 -55 rrcurveto
            endchar
          </CharString>
          <CharString index="44">
            rmoveto
            4 -12 -15 2 -13 hhcurveto
            -14 -16 -2 -4 -13 hvcurveto
            -16 -12 -25 -35 41 -207 9 -22 rlinecurve
            62 hlineto
            9 22 42 208 -25 35 rrcurveto
            return
          </CharString>
          <CharString index="45">
            -20 hstem
            140 -6 callgsubr
            40 -248 -77 callgsubr
            return
          </CharString>
          <CharString index="46">
            119 vstem
            245 30 rmoveto
            -81 callgsubr
            return
          </CharString>
          <CharString index="47">
            -229 231 90 -78 -21 103 2 callgsubr
            1 225 rmoveto
            hintmask 01100000
            0 100 6 34 52 54 0 -9 68 vhcurveto
            hintmask 10000000
            14 hlineto
            38 99 -28 callgsubr
            -52 -55 -5 13 -62 hvcurveto
            -14 hlineto
            endchar
          </CharString>
          <CharString index="48">
            29 7 46 34 59 vvcurveto
            68 -77 20 -63 -37 -56 -12 -15 -47 vhcurveto
            3 -31 8 -26 21 -26 rrcurveto
            26 26 37 32 30 hhcurveto
            35 15 -27 -23 -47 -31 -31 -43 hvcurveto
            -52 hlineto
            10 -53 rlineto
            3 hlineto
            2 12 29 1 15 hhcurveto
            return
          </CharString>
          <CharString index="49">
            30 rmoveto
            20 -5 32 -7 14 vhcurveto
            -1 3 -10 9 -4 4 -10 1 -26 -1 -21 -3 -22 -3 -32 -8 -11 -4 -5 -14 rcurveline
            11 -18 10 -20 -30 vvcurveto
            -63 -17 -41 -40 -63 vhcurveto
            74 -25 rlineto
            54 61 62 67 82 vvcurveto
            return
          </CharString>
          <CharString index="50">
            -43 hlineto
            89 82 99 102 85 vvcurveto
            61 -47 38 -89 -56 -71 -22 -20 -43 vhcurveto
            1 -20 9 -30 34 -33 rrcurveto
            26 30 55 46 37 hhcurveto
            26 7 -17 -29 -95 -110 -102 -95 -88 hvcurveto
            15 -49 rlineto
            289 hlineto
            return
          </CharString>
          <CharString index="51">
            -88 callgsubr
            hintmask 11011100
            -85 callsubr
            hintmask 11101100
            -42 callsubr
          </CharString>
          <CharString index="52">
            629 rmoveto
            73 74 -2 -12 42 hvcurveto
            19 hlineto
            return
          </CharString>
          <CharString index="53">
            188 246 -30 callsubr
            32 51 -7 -55 72 hvcurveto
            -13 callgsubr
            37 -56 -76 14 -47 hhcurveto
            -146 -132 -111 -152 return
          </CharString>
          <CharString index="54">
            -30 callgsubr
            175 -11 callsubr
            return
          </CharString>
          <CharString index="55">
            -155 -113 -125 -143 return
          </CharString>
          <CharString index="56">
            rmoveto
            -17 -26 -41 -60 -29 -42 -32 -47 rcurveline
            -50 callsubr
            225 323 85 77 rlinecurve
            -15 15 rlineto
            return
          </CharString>
          <CharString index="57">
            -49 -71 -279 -396 -86 -81 15 -15 rcurveline
            110 7 71 108 44 62 106 153 return
          </CharString>
          <CharString index="58">
            rmoveto
            -15 34 -14 64 64 vvcurveto
            197 vlineto
            4 18 16 2 12 hhcurveto
            30 41 -7 -30 43 hvcurveto
            22 56 4 37 -1 42 rrcurveto
            13 -28 -22 1 -15 hhcurveto
            -54 -46 -24 -30 -36 hvcurveto
            return
          </CharString>
          <CharString index="59">
            -39 -18 87 -69 -21 90 144 0 56 0 173 0 57 return
          </CharString>
          <CharString index="60">
            -65 callgsubr
            -31 -91 callsubr
            -50 -94 callgsubr
            21 -93 callsubr
            53 -10 11 rrcurveto
            return
          </CharString>
          <CharString index="61">
            rmoveto
            55 -42 47 -61 1 vhcurveto
            -63 1 -50 -49 -65 vvcurveto
            -55 44 -49 61 1 vhcurveto
            63 1 48 47 65 vvcurveto
            -104 -47 rmoveto
            -28 -19 15 34 8 4 14 6 6 hvcurveto
            return
          </CharString>
          <CharString index="62">
            216 161 160 220 return
          </CharString>
          <CharString index="63">
            -228 -155 -164 -211 return
          </CharString>
          <CharString index="64">
            rmoveto
            -36 1 -45 -8 -37 -14 -10 -7 rcurveline
            -1 -26 8 -51 12 -21 10 -6 rcurveline
            40 4 41 5 36 12 10 8 rcurveline
            6 28 -8 58 -14 11 rrcurveto
            endchar
          </CharString>
          <CharString index="65">
            50 70 -48 48 hhcurveto
            endchar
          </CharString>
          <CharString index="66">
            rmoveto
            9 -18 25 -33 13 -11 17 -8 rcurveline
            11 2 20 8 22 13 20 12 18 16 8 8 1 16 rcurveline
            -23 17 -25 19 -10 24 -13 60 27 return
          </CharString>
          <CharString index="67">
            rmoveto
            -37 -46 12 19 -40 hvcurveto
            273 vlineto
            25 40 47 20 45 hhcurveto
            74 9 -97 -61 -49 -13 -93 -35 -44 hvcurveto
            -4 -16 -15 -1 -13 hhcurveto
            return
          </CharString>
          <CharString index="68">
            -51 -19 92 150 63 149 64 return
          </CharString>
          <CharString index="69">
            -12 callgsubr
            144 return
          </CharString>
          <CharString index="70">
            -16 callsubr
            -34 return
          </CharString>
          <CharString index="71">
            106 rlineto
            -19 hlineto
            -19 return
          </CharString>
          <CharString index="72">
            -11 -7 -18 -6 -9 hhcurveto
            -65 -16 83 80 38 10 49 11 20 hvcurveto
            8 7 17 7 18 hhcurveto
            60 14 -67 -83 hvcurveto
            return
          </CharString>
          <CharString index="73">
            0 74 258 72 225 72 return
          </CharString>
          <CharString index="74">
            151 424 151 return
          </CharString>
          <CharString index="75">
            -141 -33 -42 callgsubr
            31 -18 25 -63 -59 vvcurveto
            -149 vlineto
            -38 -6 -61 -11 -35 vhcurveto
            -22 175 return
          </CharString>
          <CharString index="76">
            5 8 12 2 10 hhcurveto
            31 16 -13 -32 -10 -4 -15 -6 -7 hvcurveto
            -5 -8 -12 -2 -10 hhcurveto
            endchar
          </CharString>
          <CharString index="77">
            rmoveto
            78 27 64 33 30 vhcurveto
            2 10 9 1 15 hhcurveto
            return
          </CharString>
          <CharString index="78">
            rmoveto
            -69 22 -96 52 -60 46 -34 -26 -17 -44 -7 -37 70 -26 109 -27 87 -7 rrcurveto
            endchar
          </CharString>
          <CharString index="79">
            -27 callgsubr
            34 54 rlineto
            0 -75 7 -1 vhcurveto
            endchar
          </CharString>
          <CharString index="80">
            hmoveto
            -39 callgsubr
            -10 70 94 vvcurveto
            304 vlineto
            return
          </CharString>
          <CharString index="81">
            rmoveto
            -21 12 -17 7 -26 22 -162 140 rcurveline
            return
          </CharString>
          <CharString index="82">
            -5 -61 -12 -36 vhcurveto
            -22 return
          </CharString>
          <CharString index="83">
            12 callgsubr
            32 -14 65 return
          </CharString>
          <CharString index="84">
            -70 -87 -21 -19 -61 hvcurveto
            3 -40 25 -48 26 -31 35 33 59 68 35 1 rrcurveto
            75 31 return
          </CharString>
          <CharString index="85">
            rmoveto
            -1 -43 -33 -1 -43 hhcurveto
            38 71 36 49 45 70 rrcurveto
            1 -52 -1 -56 -80 vvcurveto
            return
          </CharString>
          <CharString index="86">
            -39 -18 87 -69 -21 234 56 173 57 return
          </CharString>
          <CharString index="87">
            -21 746 -18 callgsubr
            return
          </CharString>
          <CharString index="88">
            92 1 rlineto
            191 2 72 -77 -195 vvcurveto
            -91 -16 -103 -51 -53 vhcurveto
            return
          </CharString>
          <CharString index="89">
            -12 81 562 83 return
          </CharString>
          <CharString index="90">
            -34 -42 callgsubr
            31 return
          </CharString>
          <CharString index="91">
            -22 vlineto
            9 return
          </CharString>
          <CharString index="92">
            58 26 -12 -53 -29 -10 -31 -18 -14 hvcurveto
            -6 -13 -19 -2 -11 hhcurveto
            return
          </CharString>
          <CharString index="93">
            -26 41 rlineto
            -34 -65 -60 -27 -64 hhcurveto
            -75 -27 76 99 hvcurveto
            endchar
          </CharString>
          <CharString index="94">
            rmoveto
            25 0 42 6 23 vhcurveto
            -12 20 return
          </CharString>
          <CharString index="95">
            34 vhcurveto
            22 return
          </CharString>
          <CharString index="96">
            -24 callsubr
            60 vvcurveto
            return
          </CharString>
          <CharString index="97">
            49 -13 96 -84 -21 return
          </CharString>
          <CharString index="98">
            hstem
            128 142 return
          </CharString>
          <CharString index="99">
            176 136 return
          </CharString>
          <CharString index="100">
            -4 -58 -12 -34 vhcurveto
            -20 174 20 vlineto
            -15 34 -11 return
          </CharString>
          <CharString index="101">
            hlineto
            -15 -80 -15 -74 -11 -37 2 -14 rcurveline
            98 hlineto
            return
          </CharString>
          <CharString index="102">
            14 rcurveline
            -93 -18 rlineto
            0 -23 -168 -6 -38 vhcurveto
            return
          </CharString>
          <CharString index="103">
            116 21 -21 635 65 return
          </CharString>
          <CharString index="104">
            hintmask 01100000
            0 210 6 34 vhcurveto
            hintmask 10000000
            94 return
          </CharString>
          <CharString index="105">
            -21 387 112 1 -20 hstemhm
            105 129 return
          </CharString>
          <CharString index="106">
            144 vstem
            return
          </CharString>
          <CharString index="107">
            236 84 -72 -21 101 2 callgsubr
            return
          </CharString>
          <CharString index="108">
            -224 59 -59 164 return
          </CharString>
          <CharString index="109">
            1 -1 -88 rlineto
            return
          </CharString>
          <CharString index="110">
            -22 vlineto
            15 return
          </CharString>
          <CharString index="111">
            1 65 rrcurveto
            16 -5 24 -7 14 vhcurveto
            return
          </CharString>
          <CharString index="112">
            -1 -65 rrcurveto
            -16 5 -24 7 -14 vhcurveto
            return
          </CharString>
          <CharString index="113">
            -5 -46 -4 -12 6 rcurveline
            -13 22 -8 return
          </CharString>
          <CharString index="114">
            -8 -43 -14 -10 -9 rcurveline
            -1 -31 8 return
          </CharString>
          <CharString index="115">
            -145 -168 55 806 55 hstem
            return
          </CharString>
          <CharString index="116">
            98 16 rlineto
            -4 42 0 54 39 vvcurveto
            return
          </CharString>
          <CharString index="117">
            -157 vlineto
            return
          </CharString>
          <CharString index="118">
            -22 vlineto
            12 return
          </CharString>
          <CharString index="119">
            -47 772 -21 167 -20 hstem
            return
          </CharString>
          <CharString index="120">
            -18 -50 66 -14 rcurveline
            33 51 50 return
          </CharString>
          <CharString index="121">
            hstemhm
            204 105 -78 78 -78 107 return
          </CharString>
          <CharString index="122">
            -62 -12 -39 vhcurveto
            -22 return
          </CharString>
          <CharString index="123">
            -37 callsubr
            6 return
          </CharString>
          <CharString index="124">
            -12 11 rrcurveto
            return
          </CharString>
        <CharString name=".notdef">
          -346 endchar
        </CharString>
        <CharString name=".null">
          -591 endchar
        </CharString>
        <CharString name="A">
          -24 callgsubr
          406 -103 callgsubr
          endchar
        </CharString>
        <CharString name="AE">
          356 0 74 192 73 -27 72 245 72 2 -20 hstemhm
          443 139 hintmask 11010100
          648 -55 callsubr
          hintmask 11001100
          30 88 -484 -3 -6 -21 -13 -28 -12 -24 rlinecurve
          -58 -117 -65 -106 -58 -99 -48 -81 -106 -166 -46 -34 rrcurveto
          -22 168 vlineto
          5 22 9 38 28 49 15 30 rlinecurve
          10 20 31 57 27 48 rrcurveto
          1 77 44 0 39 hhcurveto
          -44 -44 callgsubr
          474 -86 callgsubr
          33 vlineto
          hintmask 10110100
          -81 callsubr
          171 2 46 vhcurveto
          -25 callgsubr
          -208 -73 rmoveto
          2 -27 1 -27 -26 vvcurveto
          hintmask 11010100
          -137 -124 vlineto
          23 44 53 97 45 76 rrcurveto
          endchar
        </CharString>
        <CharString name="Aacute">
          -87 callgsubr
          -99 177 -29 callgsubr
        </CharString>
        <CharString name="Acircumflex">
          -24 callgsubr
          611 -103 callgsubr
          -9 346 -105 callgsubr
        </CharString>
        <CharString name="Adieresis">
          -24 callgsubr
          461 -17 callgsubr
          hintmask 11100000
          -107 callsubr
          -22 325 -107 callgsubr
          hintmask 11010000
          -106 callgsubr
        </CharString>
        <CharString name="Agrave">
          -87 callgsubr
          150 224 -29 callsubr
        </CharString>
        <CharString name="Aring">
          4 21 -21 237 72 530 57 hstem
          243 97 vstem
          407 795 rmoveto
          54 -46 46 -64 1 vhcurveto
          -67 1 -54 -49 -64 vvcurveto
          -34 19 -31 29 -19 vhcurveto
          -3 hlineto
          -3 -26 -5 -20 -10 -31 -99 callgsubr
          15 -41 rlineto
          -91 callgsubr
          -3 -1 rlineto
          22 20 13 28 33 vvcurveto
          -129 -221 -85 callgsubr
          18 169 rmoveto
          -32 -21 17 38 8 4 18 7 7 hvcurveto
          5 9 15 3 10 hhcurveto
          36 16 -15 -38 -10 -4 -19 -7 -7 hvcurveto
          -4 -9 -14 -3 -10 hhcurveto
          endchar
        </CharString>
        <CharString name="Atilde">
          -24 callgsubr
          464 93 -45 88 hstemhm
          hintmask 11100000
          -107 callsubr
          114 199 -88 callgsubr
          hintmask 11010000
          -85 callsubr
          hintmask 11100000
          -42 callsubr
        </CharString>
        <CharString name="B">
          129 2 62 -45 -21 23 -21 357 61 220 62 hstemhm
          128 142 196 137 -100 100 -100 150 hintmask 0011111000000000
          361 700 rmoveto
          -72 -69 -2 -30 hhcurveto
          -26 -39 1 1 -14 hvcurveto
          -22 vlineto
          13 -40 4 -74 -36 vvcurveto
          -365 vlineto
          -36 -6 -70 -14 -34 vhcurveto
          -23 vlineto
          hintmask 1001111000000000
          26 38 3 -1 34 hvcurveto
          hintmask 0101110010000000
          14 94 -4 34 hhcurveto
          51 59 5 17 46 hvcurveto
          83 30 66 65 106 vvcurveto
          126 -91 43 -55 14 vhcurveto
          hintmask 1001110100000000
          48 24 48 50 78 vvcurveto
          112 -96 32 -146 vhcurveto
          -56 -343 rmoveto
          148 50 -58 -84 -92 -69 -59 -100 -14 -27 3 3 -20 hvcurveto
          -3 48 0 58 181 vvcurveto
          68 281 rmoveto
          hintmask 1001111000000000
          89 39 -29 -81 -61 -27 -49 -101 hvcurveto
          -68 hlineto
          172 0 31 1 14 vhcurveto
          3 26 20 0 21 hhcurveto
          endchar
        </CharString>
        <CharString name="C">
          137 -12 97 542 85 hstem
          49 151 vstem
          -69 callsubr
          endchar
        </CharString>
        <CharString name="CR">
          -346 endchar
        </CharString>
        <CharString name="Ccedilla">
          137 1 callsubr
          48 97 -66 -21 629 85 hstemhm
          49 151 hintmask 10101100
          -69 callsubr
          98 -465 rmoveto
          -68 callgsubr
          hintmask 01011100
          -28 callsubr
        </CharString>
        <CharString name="D">
          233 0 82 -60 -21 626 74 hstemhm
          125 142 357 151 hintmask 10111000
          389 hmoveto
          -48 callgsubr
          -258 vlineto
          -85 -8 -79 -9 -34 vhcurveto
          hintmask 01111000
          -22 78 vlineto
          hintmask 10111000
          157 36 -1 10 hhcurveto
          -122 393 rmoveto
          28 0 157 2 48 vhcurveto
          -19 callsubr
          -7 callgsubr
          33 0 89 126 vvcurveto
          endchar
        </CharString>
        <CharString name="E">
          43 -34 callsubr
          2 -20 hstemhm
          125 144 hintmask 11101000
          335 -55 callsubr
          hintmask 11011000
          -102 callgsubr
          hintmask 11101000
          -25 callgsubr
          endchar
        </CharString>
        <CharString name="Eacute">
          -87 callsubr
          -113 94 -104 callgsubr
        </CharString>
        <CharString name="Ecircumflex">
          43 -34 callsubr
          219 -20 hstem
          125 -1 callsubr
          335 -102 callsubr
          -63 291 -105 callgsubr
        </CharString>
        <CharString name="Edieresis">
          52 -34 callsubr
          69 -17 callgsubr
          132 144 hintmask 11110100
          342 -102 callsubr
          -76 270 -107 callgsubr
          hintmask 11101100
          -106 callgsubr
        </CharString>
        <CharString name="Egrave">
          -87 callsubr
          109 132 -97 callsubr
        </CharString>
        <CharString name="Eth">
          219 1 81 -61 -21 330 72 225 74 hstemhm
          111 142 357 151 hintmask 10111100
          -11 325 rmoveto
          0 70 4 52 1 vhcurveto
          -109 vlineto
          -85 -8 -79 -37 callgsubr
          78 vlineto
          hintmask 01111100
          157 36 -1 10 hhcurveto
          -48 callgsubr
          -78 vlineto
          1 -26 -25 0 -23 hhcurveto
          -14 hlineto
          232 224 rmoveto
          -19 callsubr
          hintmask 10111100
          -7 callgsubr
          32 0 87 121 vvcurveto
          -1 37 39 -1 37 hhcurveto
          14 hlineto
          34 79 -161 -4 rlineto
          35 0 144 2 47 vhcurveto
          endchar
        </CharString>
        <CharString name="Euro">
          124 -12 90 175 75 54 75 170 85 hstem
          14 383 rmoveto
          76 hlineto
          -1 -14 -1 -14 -15 vvcurveto
          -12 -49 vlineto
          -34 -74 rlineto
          90 hlineto
          -186 35 149 -80 153 hhcurveto
          103 80 45 29 46 hvcurveto
          26 16 -40 58 rlineto
          -20 -35 -84 -38 -52 hhcurveto
          -105 -82 64 111 -34 hvcurveto
          280 hlineto
          -1 callgsubr
          -192 hlineto
          -1 15 -1 16 16 vvcurveto
          7 300 vlineto
          -1 callgsubr
          -189 hlineto
          18 79 45 54 47 32 rrcurveto
          4 27 23 1 16 hhcurveto
          63 56 -12 -47 78 hvcurveto
          27 39 12 25 8 43 rrcurveto
          27 -61 -58 10 -51 hhcurveto
          -189 -154 -96 -159 -50 hvcurveto
          -56 hlineto
          endchar
        </CharString>
        <CharString name="F">
          -26 21 -21 319 81 221 80 2 -20 hstemhm
          125 142 hintmask 11101000
          342 621 rmoveto
          60 56 -4 -12 42 hvcurveto
          19 hlineto
          hintmask 11011000
          29 98 -440 -3 -42 callgsubr
          8 -34 9 -81 -87 -54 callgsubr
          175 -39 callgsubr
          -7 81 87 vvcurveto
          93 vlineto
          2 18 22 0 24 hhcurveto
          32 54 -5 -5 24 hvcurveto
          19 hlineto
          37 94 -230 -5 rlineto
          30 -1 153 4 38 vhcurveto
          hintmask 11101000
          2 23 26 0 23 hhcurveto
          endchar
        </CharString>
        <CharString name="G">
          174 -12 87 186 75 294 82 hstem
          49 151 350 134 vstem
          707 264 rmoveto
          35 72 -79 -4 -116 3 -79 6 rlinecurve
          -51 -80 rlineto
          133 hlineto
          -60 -3 -53 -11 -57 vhcurveto
          -10 -30 -45 -6 -34 hhcurveto
          -166 -61 105 187 114 29 88 64 55 hvcurveto
          5 18 25 1 21 hhcurveto
          99 73 -51 -49 36 hvcurveto
          65 37 39 33 22 24 rrcurveto
          42 -58 -82 46 -125 hhcurveto
          -216 -161 -170 -210 -202 152 -142 191 114 122 56 39 62 hvcurveto
          -7 57 1 64 60 vvcurveto
          endchar
        </CharString>
        <CharString name="H">
          239 21 -21 316 87 297 -20 hstem
          123 142 300 -6 callgsubr
          707 477 rmoveto
          77 6 90 9 34 vhcurveto
          22 -172 16 callsubr
          -127 -38 vvcurveto
          -76 -300 76 -50 callgsubr
          1 56 39 0 55 hhcurveto
          55 39 -1 -1 56 hvcurveto
          -95 vlineto
          -37 -6 -127 -37 callgsubr
          172 -39 callgsubr
          -6 90 77 vvcurveto
          endchar
        </CharString>
        <CharString name="I">
          -201 21 -9 callgsubr
          124 -6 callgsubr
          266 -98 callsubr
          endchar
        </CharString>
        <CharString name="IJ">
          219 -227 -21 269 -9 callgsubr
          131 142 271 -90 callsubr
          171 -478 -77 callgsubr
          endchar
        </CharString>
        <CharString name="Iacute">
          21 -21 949 -78 callgsubr
          -163 493 -104 callgsubr
        </CharString>
        <CharString name="Icircumflex">
          21 -21 920 -78 callgsubr
          -114 690 -105 callgsubr
        </CharString>
        <CharString name="Idieresis">
          21 -21 770 129 11 -20 -58 callgsubr
          -126 669 -107 callgsubr
          hintmask 10110000
          -106 callgsubr
        </CharString>
        <CharString name="Igrave">
          21 -21 949 -78 callgsubr
          59 531 -97 callsubr
        </CharString>
        <CharString name="Itilde">
          21 -21 773 93 -45 88 -58 callgsubr
          10 543 -88 callgsubr
          hintmask 10110000
          -85 callsubr
          hintmask 11010000
          -42 callsubr
        </CharString>
        <CharString name="J">
          -185 -227 -21 948 -62 callsubr
          endchar
        </CharString>
        <CharString name="Jcircumflex">
          -185 -227 -21 1168 -62 callsubr
          173 1120 -105 callgsubr
        </CharString>
        <CharString name="K">
          84 21 -9 callgsubr
          123 -6 callgsubr
          265 408 rmoveto
          71 -50 callgsubr
          114 -145 88 -112 28 -31 25 -28 rlinecurve
          194 22 hlineto
          -51 13 -75 58 -103 126 -136 166 rcurveline
          159 194 56 66 49 29 27 4 rlinecurve
          22 -166 vlineto
          -32 -19 -33 -46 -55 vhcurveto
          endchar
        </CharString>
        <CharString name="L">
          -66 callgsubr
          endchar
        </CharString>
        <CharString name="Ldotaccent">
          -66 callgsubr
          403 299 rmoveto
          14 -13 8 -68 -6 -34 -10 -9 rcurveline
          -41 -12 -47 6 callsubr
          63 1 31 10 9 rcurveline
          43 14 53 8 42 -1 rrcurveto
          endchar
        </CharString>
        <CharString name="Lslash">
          -9 0 74 626 -20 hstem
          122 -6 callgsubr
          257 vmoveto
          47 21 106 39 28 10 57 22 62 25 81 26 4 83 rcurveline
          -55 -23 -59 -23 -56 -21 -55 -22 -74 -26 -81 -26 rrcurveto
          101 -342 rmoveto
          -86 callsubr
          endchar
        </CharString>
        <CharString name="M">
          347 11 -21 31 -21 717 -20 hstemhm
          109 103 491 128 hintmask 01111000
          109 701 rmoveto
          -16 callsubr
          -106 -5 -108 -4 -104 -8 -181 -21 -128 -5 -30 rrcurveto
          -22 137 22 vlineto
          -4 103 0 93 3 94 2 76 4 73 3 49 31 -82 rcurveline
          hintmask 10111000
          67 -179 81 -225 -34 vvcurveto
          121 12 38 131 86 246 45 126 rlinecurve
          4 -38 5 -50 5 -93 4 -105 1 -107 -4 -90 rrcurveto
          hintmask 01111000
          -22 165 22 vlineto
          -16 110 -13 103 -9 134 -8 116 -5 165 2 45 rrcurveto
          22 vlineto
          -171 -18 -6 -34 -17 -59 -18 -58 rlinecurve
          -25 -82 -28 -92 -82 -228 -61 157 -59 150 -50 155 -10 30 -13 46 -6 30 rrcurveto
          endchar
        </CharString>
        <CharString name="N">
          193 10 -21 32 -21 710 -20 hstemhm
          88 102 395 102 hintmask 01111000
          209 -71 callgsubr
          endchar
        </CharString>
        <CharString name="Nacute">
          187 10 -21 32 -21 949 -20 hstemhm
          85 102 395 102 hintmask 01111000
          206 -71 callgsubr
          227 723 -104 callgsubr
        </CharString>
        <CharString name="Ntilde">
          197 10 -21 32 -21 773 93 -45 88 hstemhm
          95 102 395 102 hintmask 01101100
          216 -27 callsubr
          hintmask 10101100
          -89 callsubr
          hintmask 01101100
          -22 vlineto
          401 773 -88 callgsubr
          hintmask 10011100
          -85 callsubr
          hintmask 10101100
          -42 callsubr
        </CharString>
        <CharString name="O">
          233 -18 callsubr
          -100 callsubr
          endchar
        </CharString>
        <CharString name="OE">
          560 -11 84 -52 -21 332 72 223 74 -74 87 hstemhm
          49 152 424 154 hintmask 10101110
          845 629 rmoveto
          72 66 -3 -11 50 hvcurveto
          24 hlineto
          32 88 -467 -3 rlineto
          -14 vlineto
          2 -8 2 -11 2 -14 rrcurveto
          38 -52 -66 23 -79 hhcurveto
          -229 -153 -167 -200 -206 132 -152 220 87 78 29 46 62 hvcurveto
          -3 -20 -3 -17 -4 -12 rrcurveto
          hintmask 01110110
          -15 483 vlineto
          22 106 rlineto
          -30 hlineto
          -19 -46 -90 -13 -103 hhcurveto
          -29 -22 0 2 -20 hvcurveto
          -4 33 0 101 67 vvcurveto
          53 vlineto
          1 20 27 1 37 hhcurveto
          53 39 -4 -4 37 hvcurveto
          22 hlineto
          21 82 -256 -4 rlineto
          28 0 152 2 46 vhcurveto
          2 24 15 -1 25 hhcurveto
          -220 -295 rmoveto
          -82 -20 -102 -47 -47 vhcurveto
          3 1 rlineto
          hintmask 10110110
          -20 -33 -52 -11 -32 hhcurveto
          -191 -52 143 155 86 26 97 40 46 hvcurveto
          -4 -2 rlineto
          16 27 61 13 44 hhcurveto
          182 48 -132 -161 hvcurveto
          endchar
        </CharString>
        <CharString name="Oacute">
          -80 callsubr
          -305 382 -104 callgsubr
        </CharString>
        <CharString name="Ocircumflex">
          233 -18 callsubr
          206 -20 -100 callsubr
          -255 579 -105 callgsubr
        </CharString>
        <CharString name="Odieresis">
          232 -18 callsubr
          56 129 11 -20 -74 callgsubr
          -268 558 -107 callgsubr
          hintmask 11011100
          -106 callgsubr
        </CharString>
        <CharString name="Ograve">
          -80 callsubr
          -83 420 -97 callsubr
        </CharString>
        <CharString name="Oslash">
          220 -55 -21 64 81 562 83 27 -20 hstem
          2 -33 callsubr
          vstem
          2 339 rmoveto
          -109 42 -98 76 -64 vhcurveto
          -51 -63 -40 -48 -24 -27 rrcurveto
          -6 vlineto
          131 17 19 32 20 27 16 22 rlinecurve
          -22 46 54 -12 60 hhcurveto
          -45 callsubr
          88 -27 83 -52 62 hvcurveto
          47 58 40 46 26 30 rrcurveto
          6 vlineto
          -126 -14 rlineto
          0 -20 -32 -27 -40 vhcurveto
          37 -53 -68 22 -83 hhcurveto
          -44 callsubr
          hvcurveto
          198 -173 rmoveto
          -33 54 -14 71 73 vvcurveto
          111 30 89 39 40 vhcurveto
          13 21 57 14 52 hhcurveto
          77 53 -28 -44 36 hvcurveto
          -103 -135 -108 -129 -107 -129 rrcurveto
          377 175 -64 callgsubr
          -56 -44 14 24 -34 hvcurveto
          74 95 119 150 108 134 rrcurveto
          14 -43 7 -50 -52 vvcurveto
          endchar
        </CharString>
        <CharString name="Otilde">
          232 -18 callsubr
          59 93 -45 88 -74 callgsubr
          -132 432 -56 callsubr
        </CharString>
        <CharString name="P">
          92 21 -21 272 59 304 65 -9 callsubr
          225 150 vstem
          290 hmoveto
          22 vlineto
          -12 31 -8 37 58 vvcurveto
          131 vlineto
          -5 25 28 -2 18 hhcurveto
          169 135 81 153 148 -112 46 -176 hvcurveto
          -70 -48 -2 -49 hhcurveto
          -26 -19 1 1 -34 -53 callgsubr
          -8 -70 -12 -35 callgsubr
          vlineto
          243 635 rmoveto
          106 38 -43 -96 -104 -53 -61 -102 -19 -26 2 7 -25 hvcurveto
          128 vlineto
          80 0 56 2 30 vhcurveto
          2 24 32 -1 23 hhcurveto
          endchar
        </CharString>
        <CharString name="Q">
          236 -75 -21 84 78 565 83 hstem
          49 151 424 150 vstem
          49 339 rmoveto
          -194 132 -157 218 56 50 10 19 44 vhcurveto
          42 -41 23 -26 40 -46 145 47 rcurveline
          -1 8 -73 35 -44 36 -44 38 rlinecurve
          80 66 57 97 134 vvcurveto
          198 -123 151 -217 -227 -158 -163 -212 vhcurveto
          575 6 rmoveto
          -89 -18 -81 -32 -54 vhcurveto
          -30 25 -34 34 -24 27 -101 -38 rcurveline
          -6 vlineto
          43 -36 38 -32 24 -23 rrcurveto
          -4 -16 -18 -2 -19 hhcurveto
          -187 -50 156 144 104 29 91 39 43 hvcurveto
          15 30 52 12 52 hhcurveto
          176 46 -143 -143 hvcurveto
          endchar
        </CharString>
        <CharString name="R">
          -4 callsubr
          -101 callsubr
          endchar
        </CharString>
        <CharString name="Racute">
          -4 callsubr
          249 -20 -101 callsubr
          -78 88 -104 callgsubr
        </CharString>
        <CharString name="Rcaron">
          -4 callsubr
          219 -20 -101 callsubr
          71 108 -64 callsubr
        </CharString>
        <CharString name="Rcommaaccent">
          116 -215 -21 257 -21 635 65 -9 callsubr
          70 104 30 148 vstem
          444 -79 callgsubr
          178 606 -105 callsubr
          endchar
        </CharString>
        <CharString name="S">
          32 -12 84 562 78 hstem
          70 121 242 128 vstem
          191 558 rmoveto
          27 6 22 10 12 vhcurveto
          11 20 28 4 23 hhcurveto
          66 82 -46 -60 65 hvcurveto
          28 47 16 48 7 39 rrcurveto
          27 -63 -82 23 -80 hhcurveto
          -125 -122 -51 -135 -131 110 -38 100 -44 hvcurveto
          77 -34 76 -31 -76 vvcurveto
          -31 -10 -35 -9 -12 vhcurveto
          -14 -24 -27 -8 -30 hhcurveto
          -77 -86 53 68 -61 hvcurveto
          -28 -34 -25 -54 -2 -47 rrcurveto
          -48 72 76 -22 88 hhcurveto
          159 112 67 142 145 -122 41 -73 34 hvcurveto
          -103 48 -72 23 70 vvcurveto
          endchar
        </CharString>
        <CharString name="T">
          -37 21 -21 630 70 3 -20 hstemhm
          205 142 hintmask 11010000
          9 601 rmoveto
          63 14 54 12 75 3 rrcurveto
          4 -51 0 -79 -24 vvcurveto
          -261 vlineto
          -75 -6 -84 -8 -35 callgsubr
          172 -39 callgsubr
          -7 88 74 vvcurveto
          262 vlineto
          24 0 76 4 50 vhcurveto
          77 -3 56 -12 61 -14 rrcurveto
          19 hlineto
          hintmask 10110000
          36 2 32 3 34 vhcurveto
          hintmask 11010000
          -2 -130 -71 -1 -93 hhcurveto
          hintmask 10110000
          -91 -69 1 2 -130 hvcurveto
          3 -34 2 -32 -36 vvcurveto
          endchar
        </CharString>
        <CharString name="Thorn">
          85 21 -21 176 59 307 65 93 -20 hstem
          123 142 223 150 vstem
          334 176 rmoveto
          169 135 82 154 149 -112 46 -176 -30 -26 0 -1 -24 hvcurveto
          3 31 3 28 3 13 rrcurveto
          -56 callgsubr
          -6 26 -5 81 -2 53 rrcurveto
          -4 24 26 -2 18 hhcurveto
          -69 303 rmoveto
          13 1 23 1 26 vhcurveto
          2 23 31 -1 23 hhcurveto
          106 38 -43 -97 -105 -53 -62 -102 -19 -25 2 6 -24 hvcurveto
          endchar
        </CharString>
        <CharString name="U">
          3 callgsubr
          629 -100 callgsubr
          endchar
        </CharString>
        <CharString name="Uacute">
          -79 callsubr
          -384 411 -104 callgsubr
        </CharString>
        <CharString name="Ucircumflex">
          3 callgsubr
          849 -100 callgsubr
          -334 608 -105 callgsubr
        </CharString>
        <CharString name="Udieresis">
          3 callgsubr
          699 -17 callgsubr
          89 142 334 111 hintmask 11011000
          -103 callsubr
          -347 587 -107 callgsubr
          hintmask 10111000
          -106 callgsubr
        </CharString>
        <CharString name="Ugrave">
          -79 callsubr
          -162 449 -97 callsubr
        </CharString>
        <CharString name="V">
          104 7 -21 714 -20 hstem
          373 123 rmoveto
          -131 374 rlineto
          -29 87 -14 45 49 vvcurveto
          22 -204 -22 vlineto
          19 -13 32 -41 55 -138 29 -73 149 -371 1 -56 144 15 rcurveline
          44 142 47 126 44 127 27 73 67 170 49 39 rrcurveto
          -19 callgsubr
          -1 -24 -3 -32 -7 -37 -6 -30 -10 -34 -12 -36 rrcurveto
          endchar
        </CharString>
        <CharString name="W">
          430 7 -21 714 -20 hstem
          618 587 rmoveto
          -8 33 -7 27 -6 53 rrcurveto
          -153 hlineto
          -1 -41 -8 -44 -5 -29 -8 -46 -12 -56 -17 -61 -17 -65 -37 -138 -25 -83 -103 367 rcurveline
          -9 29 -22 82 57 vvcurveto
          28 -184 -22 vlineto
          21 -23 16 -37 42 -131 53 -166 81 -274 2 -61 153 14 rcurveline
          42 158 34 136 38 124 9 31 10 30 10 30 29 -98 rcurveline
          38 -128 59 -200 14 -97 152 14 rcurveline
          38 142 43 143 43 137 28 90 34 104 44 62 rrcurveto
          22 -166 -22 vlineto
          -24 -1 -31 -4 -37 vhcurveto
          -18 -156 -58 -170 -35 -123 -48 158 -45 144 -36 148 rrcurveto
          endchar
        </CharString>
        <CharString name="X">
          79 20 -21 22 -21 700 -20 hstemhm
          232 223 hintmask 01110000
          258 356 rmoveto
          -31 -47 -45 -64 -66 -93 -49 -69 -46 -42 -35 -19 rrcurveto
          -22 vlineto
          hintmask 10110000
          181 -1 rlineto
          27 18 50 32 57 vhcurveto
          17 31 40 62 41 58 35 -59 rcurveline
          41 -68 64 -102 -33 vvcurveto
          hintmask 01110000
          -22 224 22 vlineto
          -41 21 -34 42 -115 167 -90 132 rcurveline
          29 44 63 87 25 34 47 63 33 43 46 23 rrcurveto
          22 -176 vlineto
          -27 -14 -46 -35 -61 vhcurveto
          -15 -26 -22 -36 -36 -51 -21 31 rcurveline
          -53 81 -38 63 49 vvcurveto
          22 vlineto
          -226 1 -42 callgsubr
          35 -15 49 -50 86 -132 rrcurveto
          endchar
        </CharString>
        <CharString name="Y">
          -29 21 -9 callgsubr
          223 11 callgsubr
          355 -70 callgsubr
          endchar
        </CharString>
        <CharString name="Yacute">
          -12 21 -21 949 -20 hstem
          229 11 callgsubr
          361 -70 callgsubr
          -164 503 -104 callgsubr
        </CharString>
        <CharString name="Z">
          -6 0 74 553 74 4 -20 hstemhm
          hintmask 10100000
          538 705 rmoveto
          -485 -7 -21 -109 rlineto
          19 hlineto
          hintmask 11000000
          21 57 100 17 102 hhcurveto
          28 53 0 -1 24 hvcurveto
          -419 -568 35 -58 rlineto
          536 hlineto
          23 -36 callsubr
          -50 -131 -13 -103 hhcurveto
          -29 -66 0 2 -29 hvcurveto
          415 563 rlineto
          endchar
        </CharString>
        <CharString name="a">
          -21 callsubr
          -8 callgsubr
          160 133 hintmask 01111100
          338 115 rmoveto
          -25 -20 -34 -21 -39 hhcurveto
          -43 -25 22 56 15 3 20 12 15 hvcurveto
          12 17 22 4 25 hhcurveto
          28 32 -5 -8 22 hvcurveto
          13 -137 rmoveto
          8 -30 9 -29 13 -25 143 30 rcurveline
          -2 22 rlineto
          -30 19 -22 63 59 vvcurveto
          157 vlineto
          127 -103 43 -101 vhcurveto
          hintmask 10111100
          -23 callsubr
          -51 -65 hvcurveto
          -61 vlineto
          -89 4 rlineto
          -110 -93 -30 -109 -104 85 -44 74 69 37 38 43 41 hvcurveto
          endchar
        </CharString>
        <CharString name="aacute">
          -90 callgsubr
          -117 443 -104 callgsubr
        </CharString>
        <CharString name="acircumflex">
          -48 callsubr
          0 204 -20 callgsubr
          hintmask 0110010110000000
          -94 callsubr
          hintmask 1000101110000000
          -95 callsubr
          hintmask 0101001110000000
          -77 callsubr
          -111 640 -105 callgsubr
        </CharString>
        <CharString name="acute">
          -42 527 -21 226 -20 hstem
          182 506 -104 callgsubr
        </CharString>
        <CharString name="acute.cap">
          12 callsubr
          149 751 -29 callgsubr
        </CharString>
        <CharString name="adieresis">
          -48 callsubr
          54 129 11 9 callgsubr
          hintmask 0110011011000000
          -94 callsubr
          hintmask 1000101011000000
          -95 callsubr
          hintmask 0101011011000000
          -77 callsubr
          -122 619 -107 callgsubr
          hintmask 1001010111000000
          -106 callgsubr
        </CharString>
        <CharString name="ae">
          243 -18 87 -67 -21 227 56 -41 63 149 64 -8 callgsubr
          160 145 -8 callsubr
          hintmask 10101111
          769 -78 callsubr
          hintmask 10011111
          -52 callgsubr
          -67 -57 -24 -38 -43 vhcurveto
          44 -39 -64 18 -64 hhcurveto
          -23 callsubr
          -52 -67 hvcurveto
          -63 vlineto
          -89 4 rlineto
          -110 -93 -29 -108 -102 85 -43 96 69 56 31 40 49 hvcurveto
          -47 44 61 -25 58 hhcurveto
          -33 callgsubr
          hvcurveto
          -84 callsubr
          -402 -83 rmoveto
          hintmask 10101111
          27 29 -4 -7 27 hvcurveto
          -1 vlineto
          -18 5 -35 15 -30 vhcurveto
          -26 -30 -36 -18 -46 hhcurveto
          hintmask 01101111
          -45 -25 21 54 15 3 19 12 15 hvcurveto
          11 17 22 4 25 hhcurveto
          endchar
        </CharString>
        <CharString name="agrave">
          -90 callgsubr
          19 481 -97 callsubr
        </CharString>
        <CharString name="ampersand">
          264 -46 -21 56 78 328 66 175 75 hstemhm
          40 139 -66 121 333 105 hintmask 11110110
          668 394 rmoveto
          63 hlineto
          34 71 rlineto
          0 -122 -4 -32 -39 -80 6 0 vhcurveto
          -55 -71 114 -2 rlineto
          13 -40 3 -35 -31 vvcurveto
          -20 -2 -34 -4 -22 vhcurveto
          -49 34 -55 42 -32 25 rrcurveto
          -125 99 -66 80 69 vvcurveto
          44 29 31 48 30 48 -12 -70 90 vhcurveto
          25 29 11 20 9 29 5 17 2 18 1 10 rrcurveto
          7 -18 -95 27 -101 hhcurveto
          -102 -103 -28 -112 -50 15 -48 48 -58 hvcurveto
          hintmask 11111010
          -54 -18 -82 -51 -126 vvcurveto
          -127 90 -104 198 107 84 28 58 60 vhcurveto
          63 -47 9 -7 16 -12 108 -76 rlinecurve
          84 108 -80 40 -70 38 -70 41 rlinecurve
          21 46 12 54 63 vvcurveto
          26 -2 28 -2 17 vhcurveto
          -305 -160 rmoveto
          47 -38 79 -57 27 -20 -4 -4 -5 -5 -5 -3 rrcurveto
          -25 -37 -44 -15 -60 hhcurveto
          -121 -61 89 83 57 18 37 29 26 hvcurveto
          35 -36 54 -50 48 -39 rrcurveto
          endchar
        </CharString>
        <CharString name="aring">
          -48 callsubr
          179 66 -8 callgsubr
          38 87 36 132 -104 104 hintmask 0110011111000000
          -94 callsubr
          hintmask 1000101111000000
          -95 callsubr
          hintmask 0101011111000000
          -77 callsubr
          hintmask 1001011110100000
          15 578 -46 callsubr
          -31 callsubr
        </CharString>
        <CharString name="asciicircum">
          43 400 -21 303 -20 hstem
          276 682 rmoveto
          -158 -303 rlineto
          99 hlineto
          101 199 96 -199 rlineto
          102 hlineto
          -152 303 rlineto
          endchar
        </CharString>
        <CharString name="asciitilde">
          81 206 90 -37 37 -37 91 hstemhm
          hintmask 01000000
          549 337 rmoveto
          hintmask 00100000
          -22 -32 -47 -19 -28 -68 -79 54 -65 hhcurveto
          -51 -55 -24 -24 -44 hvcurveto
          45 -87 rlineto
          hintmask 10000000
          25 34 43 19 31 68 70 -53 69 hhcurveto
          53 60 23 22 39 hvcurveto
          endchar
        </CharString>
        <CharString name="asterisk">
          -165 342 -21 375 -20 hstem
          249 340 rmoveto
          15 -19 99 67 -10 21 -29 15 -31 23 -30 31 rlinecurve
          50 -8 28 -12 25 -15 22 4 rcurveline
          1 120 -23 1 -31 -10 -32 -8 -39 -5 rlinecurve
          28 26 33 30 27 13 8 22 rcurveline
          -84 60 -20 -18 -9 -38 -11 -28 -23 -41 rlinecurve
          -22 39 -12 33 -9 35 -20 18 rcurveline
          -84 -60 8 -22 29 -14 26 -25 33 -30 rlinecurve
          -39 5 -32 8 -31 10 -23 -1 rcurveline
          1 -120 21 -4 25 14 28 13 51 8 rlinecurve
          -29 -31 -32 -22 -29 -16 -10 -21 rcurveline
          99 -67 15 19 9 39 11 35 16 35 rlinecurve
          15 -35 12 -35 9 -39 rrcurveto
          endchar
        </CharString>
        <CharString name="at">
          281 -54 77 94 70 298 69 76 78 hstem
          35 116 62 120 143 84 174 101 vstem
          647 75 rmoveto
          -31 -65 -73 -21 -71 hhcurveto
          -156 -131 84 221 140 63 91 93 53 hvcurveto
          14 41 47 4 31 hhcurveto
          123 185 -47 -190 -85 -51 -117 -88 -4 hvcurveto
          -20 -1 -15 11 27 vvcurveto
          15 2 19 8 27 vhcurveto
          74 250 rlineto
          8 -25 -61 11 -44 hhcurveto
          -202 -99 -174 -145 -101 50 -17 34 42 65 37 71 67 hvcurveto
          5 hlineto
          -64 25 -44 77 136 121 120 158 170 -116 143 -259 -273 -152 -183 -214 -245 174 -120 212 99 88 33 49 71 vhcurveto
          -189 322 rmoveto
          -9 -38 -30 -25 -37 -33 rrcurveto
          -24 -26 -27 -22 -15 hhcurveto
          -10 -3 17 22 26 6 32 7 26 hvcurveto
          17 65 25 45 28 34 rrcurveto
          7 22 23 3 15 hhcurveto
          12 27 -2 -5 13 hvcurveto
          endchar
        </CharString>
        <CharString name="atilde">
          -48 callsubr
          105 45 -45 88 -20 callgsubr
          hintmask 0110010111000000
          -94 callsubr
          hintmask 1000100111000000
          -95 callsubr
          hintmask 0101011011000000
          -77 callsubr
          14 493 -88 callgsubr
          hintmask 1001010111000000
          -57 callgsubr
        </CharString>
        <CharString name="b">
          35 -19 75 369 74 247 -20 hstem
          94 129 215 -1 callsubr
          346 56 rmoveto
          -40 -49 13 12 -34 hvcurveto
          297 vlineto
          26 44 51 21 38 hhcurveto
          73 9 -105 -64 -77 -22 -89 -19 -24 hvcurveto
          -6 -8 -24 -4 -19 hhcurveto
          -123 586 rmoveto
          28 0 27 5 27 vhcurveto
          -8 22 -171 -35 -42 callgsubr
          24 -23 21 -40 -56 vvcurveto
          -388 vlineto
          -57 -4 -57 -7 -18 vhcurveto
          -22 vlineto
          -28 74 61 -19 67 hhcurveto
          159 138 121 164 124 -78 109 -143 -53 -50 -25 -27 -35 hvcurveto
          endchar
        </CharString>
        <CharString name="backslash">
          -314 -168 -21 920 -20 hstem
          356 -92 rmoveto
          0 -93 199 -15 31 vhcurveto
          -38 84 -168 397 -28 96 -16 16 rcurveline
          -70 -114 23 -45 24 -44 17 -38 rlinecurve
          53 -116 186 -420 40 -128 15 -15 rcurveline
          endchar
        </CharString>
        <CharString name="bar">
          -317 -168 -21 928 -20 hstem
          73 119 vstem
          192 -143 rmoveto
          723 -2 callgsubr
          -5 vlineto
          1 -879 rlineto
          endchar
        </CharString>
        <CharString name="braceleft">
          8 callsubr
          133 126 vstem
          259 104 rmoveto
          90 -57 49 -40 24 vhcurveto
          6 vlineto
          41 27 56 38 96 vvcurveto
          116 vlineto
          77 2 66 46 20 30 -2 -8 45 vhcurveto
          8 46 rlineto
          11 -41 -49 8 -31 hhcurveto
          -149 -7 -110 -109 hvcurveto
          -114 vlineto
          -85 -47 -32 -33 -20 vhcurveto
          -16 vlineto
          30 -15 49 -25 -88 vvcurveto
          -82 vlineto
          -124 14 -96 144 31 49 9 10 41 vhcurveto
          -8 46 rlineto
          -8 -45 -30 -2 -20 hhcurveto
          -48 -1 72 76 hvcurveto
          endchar
        </CharString>
        <CharString name="braceright">
          8 callsubr
          187 127 vstem
          187 35 rmoveto
          -76 -1 -72 -48 -20 -30 2 8 -45 vhcurveto
          -8 -46 rlineto
          -10 41 49 -9 31 hhcurveto
          144 14 96 124 hvcurveto
          82 vlineto
          88 49 25 30 15 vhcurveto
          16 vlineto
          -33 20 -47 32 85 vvcurveto
          114 vlineto
          109 -7 110 -149 -31 -49 -8 -11 -41 vhcurveto
          8 -46 rlineto
          8 45 30 2 20 hhcurveto
          46 2 -66 -77 hvcurveto
          -116 vlineto
          -96 56 -38 41 -27 vhcurveto
          -6 vlineto
          -40 -24 -57 -49 -90 vvcurveto
          endchar
        </CharString>
        <CharString name="bracketleft">
          -5 callgsubr
          95 120 hintmask 10101000
          217 -114 rmoveto
          -2 29 0 26 25 vvcurveto
          729 15 vlineto
          50 43 -8 -9 24 hvcurveto
          19 hlineto
          hintmask 01011000
          44 82 -315 -3 rlineto
          -931 vlineto
          315 -4 -44 83 rlineto
          -19 hlineto
          hintmask 10101000
          -9 -24 -45 -10 -50 hhcurveto
          endchar
        </CharString>
        <CharString name="bracketright">
          -5 callgsubr
          290 120 hintmask 10101000
          277 -114 rmoveto
          -50 -45 10 9 -24 hvcurveto
          -19 hlineto
          hintmask 01011000
          -44 -83 315 4 rlineto
          931 vlineto
          -315 3 44 -82 rlineto
          19 hlineto
          hintmask 10101000
          9 24 43 8 50 hhcurveto
          15 -729 hlineto
          -25 0 -26 -2 -29 vhcurveto
          endchar
        </CharString>
        <CharString name="brokenbar">
          -317 -168 -21 424 120 384 -20 hstem
          73 119 vstem
          73 235 rmoveto
          1 -424 118 46 rlineto
          378 vlineto
          120 vmoveto
          225 -2 callgsubr
          -340 vlineto
          endchar
        </CharString>
        <CharString name="bullet">
          -24 369 457 rmoveto
          -65 9 -96 -24 -43 -23 -19 -18 rcurveline
          -10 -64 15 -108 28 -37 22 -12 rcurveline
          44 -6 104 12 51 32 19 17 rcurveline
          13 57 -16 113 -28 42 rrcurveto
          endchar
        </CharString>
        <CharString name="c">
          -49 -18 89 350 78 hstem
          44 -1 callsubr
          -54 callsubr
          -151 92 -103 152 67 105 67 42 45 hvcurveto
          -14 callsubr
        </CharString>
        <CharString name="caron">
          -74 537 -21 186 -20 hstem
          315 526 -64 callsubr
        </CharString>
        <CharString name="caron.cap">
          -74 751 -21 177 -20 hstem
          315 740 rmoveto
          27 47 30 45 53 36 -59 callgsubr
          -38 40 -48 32 -52 rrcurveto
          endchar
        </CharString>
        <CharString name="ccedilla">
          -49 1 callsubr
          481 78 hstemhm
          44 144 hintmask 10110000
          -54 callsubr
          -134 71 -96 122 -20 hvcurveto
          -37 -76 -68 callgsubr
          hintmask 01110000
          -27 callgsubr
          30 48 66 14 85 55 39 37 rlinecurve
          -14 callsubr
        </CharString>
        <CharString name="cedilla">
          -69 1 callsubr
          58 -20 hstemhm
          hintmask 10100000
          282 -90 rmoveto
          -68 callgsubr
          hintmask 01100000
          -28 callsubr
        </CharString>
        <CharString name="cent">
          -53 -110 -21 113 89 539 -20 hstem
          40 144 97 69 vstem
          475 132 rmoveto
          -43 -23 -41 -19 -41 -11 rrcurveto
          328 vlineto
          23 -9 28 -15 32 -24 -13 callgsubr
          -45 29 -57 15 -45 5 1 30 2 31 5 38 -5 14 rcurveline
          -76 -26 rlineto
          3 -31 1 -28 -29 vvcurveto
          -131 -17 -110 -104 -139 vvcurveto
          -150 90 -102 149 -2 vhcurveto
          -2 -32 -4 -35 -4 -32 5 -14 rcurveline
          80 16 rlineto
          -4 35 0 41 36 vvcurveto
          57 21 62 43 32 30 rrcurveto
          -317 155 -30 callsubr
          3 -350 hlineto
          -71 3 -26 75 97 vvcurveto
          endchar
        </CharString>
        <CharString name="circumflex">
          -91 537 -21 187 -20 hstem
          207 703 -105 callgsubr
        </CharString>
        <CharString name="circumflex.cap">
          -91 737 -21 187 -20 hstem
          209 903 -105 callgsubr
        </CharString>
        <CharString name="colon">
          -248 11 -21 hstem
          212 462 -65 callsubr
          7 -345 -65 callsubr
          endchar
        </CharString>
        <CharString name="comma">
          -289 -159 -21 hstem
          89 133 vstem
          222 -58 callsubr
          endchar
        </CharString>
        <CharString name="commaaccent">
          -340 -215 -21 hstem
          117 104 vstem
          221 -79 callgsubr
          endchar
        </CharString>
        <CharString name="copyright">
          193 -7 70 -70 167 399 152 -70 70 hstemhm
          31 81 -81 176 468 78 hintmask 10011010
          -68 callsubr
          -353 15 rmoveto
          -64 19 -61 59 49 73 32 8 13 vhcurveto
          31 -45 rlineto
          hintmask 01100110
          -8 -13 -92 -65 -68 hhcurveto
          -116 -70 80 116 117 104 86 111 33 63 -8 -34 44 hvcurveto
          -14 -25 -22 -29 -17 -16 rrcurveto
          28 -46 -32 15 -30 hhcurveto
          -7 -8 0 -3 -17 hvcurveto
          -30 -18 -17 -53 -53 vvcurveto
          endchar
        </CharString>
        <CharString name="currency">
          85 140 -21 27 91 229 84 29 -20 hstem
          115 101 223 100 vstem
          496 227 rmoveto
          30 35 13 47 41 vvcurveto
          41 -14 43 -28 37 vhcurveto
          84 77 -83 31 -11 -11 -45 -51 rlineto
          21 -33 -40 12 -41 hhcurveto
          -43 -38 -12 -21 -33 hvcurveto
          -45 50 -11 11 -83 -31 82 -77 rlineto
          -26 -36 -16 -42 -42 vvcurveto
          -41 14 -46 26 -36 vhcurveto
          -80 -74 83 -34 11 12 45 50 rlineto
          -21 33 38 -14 43 hhcurveto
          41 43 14 21 33 hvcurveto
          44 -50 10 -12 81 31 rlineto
          -141 201 rmoveto
          -63 -47 -51 -65 -66 -45 52 62 63 45 52 66 65 47 -52 -63 vhcurveto
          endchar
        </CharString>
        <CharString name="d">
          31 -19 80 -61 -21 447 73 247 -20 hstemhm
          49 144 215 129 hintmask 10111100
          289 -19 rmoveto
          54 46 37 29 29 hvcurveto
          5 -21 6 -22 9 -25 150 39 rcurveline
          -2 22 rlineto
          -30 21 -19 60 60 vvcurveto
          hintmask 01111100
          467 vlineto
          30 -1 21 4 25 vhcurveto
          -10 22 -167 -35 -42 callgsubr
          25 -23 20 -41 -43 vvcurveto
          -90 vlineto
          5 -29 -32 2 -24 hhcurveto
          -162 -112 -119 -144 -134 73 -121 167 hvcurveto
          hintmask 10111100
          -57 432 rmoveto
          6 8 21 7 18 hhcurveto
          42 50 -14 -24 37 hvcurveto
          -280 vlineto
          -34 -43 -41 -13 -24 hhcurveto
          -77 -30 99 90 60 10 67 29 36 hvcurveto
          endchar
        </CharString>
        <CharString name="degree">
          -224 416 71 147 71 hstem
          39 69 152 68 vstem
          183 705 rmoveto
          -85 -59 -61 -83 -87 62 -58 85 85 57 63 86 83 -60 57 -85 hvcurveto
          6 -218 rmoveto
          -47 -34 18 65 15 3 17 4 12 hvcurveto
          12 13 28 8 21 hhcurveto
          45 38 -20 -63 -10 -3 -21 -5 -13 hvcurveto
          -14 -14 -29 -6 -20 hhcurveto
          endchar
        </CharString>
        <CharString name="dieresis">
          -47 553 129 11 2 callgsubr
          213 682 -107 callgsubr
          hintmask 01000000
          -106 callgsubr
        </CharString>
        <CharString name="dieresis.cap">
          -56 746 131 10 2 callgsubr
          215 877 -47 callsubr
          hintmask 01000000
          200 16 -47 callsubr
          endchar
        </CharString>
        <CharString name="divide">
          -18 106 115 36 87 37 115 hstem
          215 133 vstem
          215 438 rmoveto
          -33 28 -24 38 38 29 24 33 6 callgsubr
          -275 vmoveto
          -32 28 -25 38 38 29 25 32 6 callgsubr
          348 181 rmoveto
          -552 2 callsubr
          551 hlineto
          endchar
        </CharString>
        <CharString name="dollar">
          30 -110 -21 949 -20 hstem
          70 123 83 69 84 11 callgsubr
          353 804 rmoveto
          -5 14 -76 -26 2 -29 1 -27 1 -26 rlinecurve
          -110 -11 -96 -53 -120 vvcurveto
          -132 108 -43 98 -41 vhcurveto
          -228 vlineto
          -60 19 -60 42 -46 50 -28 -34 -26 -54 -2 -47 67 -45 72 -22 81 -3 -2 -33 -3 -38 -5 -34 5 -14 rcurveline
          80 16 rlineto
          -3 33 -1 39 34 vvcurveto
          129 14 87 67 125 vvcurveto
          137 -115 45 -101 41 vhcurveto
          192 vlineto
          49 -17 52 -33 45 -41 28 47 16 48 7 46 -56 24 -70 20 -71 5 1 28 3 30 4 35 rrcurveto
          76 -639 rmoveto
          -31 -10 -35 -9 -12 vhcurveto
          -13 -24 -15 -2 -26 hhcurveto
          206 vlineto
          48 -26 36 -32 -55 vvcurveto
          -236 388 rmoveto
          25 7 22 11 11 vhcurveto
          9 21 20 5 24 hhcurveto
          -175 vlineto
          -48 24 -35 30 49 vvcurveto
          endchar
        </CharString>
        <CharString name="dotaccentcmb">
          -91 600 -21 hstem
          308 711 -43 callsubr
        </CharString>
        <CharString name="dotaccentcmb.cap">
          -65 807 -21 hstem
          312 918 -43 callsubr
        </CharString>
        <CharString name="dotlessi">
          -274 21 -21 503 -20 hstem
          107 11 callgsubr
          239 393 -13 callsubr
          -186 -17 callsubr
          -17 29 -30 callgsubr
          178 -11 callsubr
          endchar
        </CharString>
        <CharString name="dotlessj">
          16 callgsubr
          753 -20 -4 callgsubr
          384 -82 callgsubr
          endchar
        </CharString>
        <CharString name="e">
          -39 callsubr
          -98 callgsubr
          endchar
        </CharString>
        <CharString name="eacute">
          -76 callgsubr
          -142 215 -104 callgsubr
        </CharString>
        <CharString name="ecircumflex">
          -39 callsubr
          204 -20 -98 callgsubr
          -134 412 -105 callgsubr
        </CharString>
        <CharString name="edieresis">
          -39 callsubr
          54 -17 callgsubr
          44 144 -8 callsubr
          hintmask 11110110
          -101 callgsubr
          -143 391 -107 callgsubr
          hintmask 11101110
          -106 callgsubr
        </CharString>
        <CharString name="egrave">
          -76 callgsubr
          -6 253 -97 callsubr
        </CharString>
        <CharString name="eight">
          45 -11 81 577 65 hstemhm
          52 144 -102 131 195 131 -111 144 hintmask 11011000
          551 544 rmoveto
          124 -107 44 -117 -140 -93 -62 -120 -75 37 -45 71 -45 vhcurveto
          hintmask 11100100
          -73 -27 -77 -53 -102 vvcurveto
          -130 122 -64 144 149 117 68 128 85 -52 40 -99 57 vhcurveto
          hintmask 11101000
          57 35 61 50 92 vvcurveto
          hintmask 11100100
          -111 -377 rmoveto
          -39 -16 -33 -19 -13 vhcurveto
          -8 -19 -39 -4 -22 hhcurveto
          -88 -41 44 81 53 17 45 65 29 hvcurveto
          122 -62 40 -34 -59 vvcurveto
          hintmask 11011000
          -215 380 rmoveto
          29 8 40 22 19 vhcurveto
          7 15 25 5 23 hhcurveto
          64 38 -33 -76 -38 -10 -54 -50 -37 hvcurveto
          -111 56 -24 33 49 vvcurveto
          endchar
        </CharString>
        <CharString name="emdash">
          357 0 callsubr
          1 230 rmoveto
          -3 callsubr
          460 3 -12 98 hvcurveto
          14 hlineto
          36 97 -28 callgsubr
          -128 -1 -497 10 callgsubr
        </CharString>
        <CharString name="endash">
          -19 0 callsubr
          230 vmoveto
          -3 callsubr
          87 3 -12 98 hvcurveto
          14 hlineto
          35 97 -28 callgsubr
          -128 -1 -124 10 callgsubr
        </CharString>
        <CharString name="equal">
          -56 175 87 65 87 1 -20 hstemhm
          hintmask 11000000
          525 414 rmoveto
          hintmask 10100000
          -514 1 rlineto
          hintmask 11000000
          -1 -88 rlineto
          514 hlineto
          1 -65 rmoveto
          -514 2 callsubr
          514 hlineto
          endchar
        </CharString>
        <CharString name="eth">
          24 -19 64 389 58 249 -20 hstem
          51 -38 callsubr
          vstem
          295 492 rmoveto
          -101 -143 -86 -176 -67 callgsubr
          91 -27 53 -58 58 hvcurveto
          -23 23 -21 21 -22 19 -14 13 rlinecurve
          -20 18 -17 18 -18 18 30 10 33 11 33 10 5 82 rcurveline
          -152 -56 -33 37 -17 21 -16 25 rlinecurve
          -12 19 -178 -38 3 -22 45 -22 40 -23 49 -39 rlinecurve
          -28 -9 -30 -10 -31 -9 -7 -86 rcurveline
          35 15 83 31 41 15 18 -17 18 -19 15 -16 rrcurveto
          132 -264 -95 callgsubr
          endchar
        </CharString>
        <CharString name="exclam">
          -285 10 -21 727 -20 hstem
          99 121 vstem
          210 197 rmoveto
          2 67 2 36 6 148 5 128 5 92 5 29 -13 19 rcurveline
          -172 -27 rlineto
          -17 vlineto
          25 -16 13 -32 4 -41 1 -20 4 -53 2 -99 rrcurveto
          1 -64 1 -105 -61 vvcurveto
          126 -67 rmoveto
          12 -11 7 -58 -5 -30 -9 -8 rcurveline
          -36 -10 -31 -5 -40 -3 -11 5 rcurveline
          -11 19 -8 52 2 29 9 8 rcurveline
          12 37 37 6 36 hhcurveto
          endchar
        </CharString>
        <CharString name="exclamdown">
          -285 -214 -21 727 -20 hstem
          112 121 vstem
          114 302 rmoveto
          -45 -1 -123 -1 -64 vhcurveto
          -2 -99 -4 -53 -1 -20 -4 -41 -13 -32 -25 -16 rrcurveto
          -17 vlineto
          172 -27 13 19 -5 29 -5 92 -5 128 rlinecurve
          -6 148 -2 34 -2 67 rrcurveto
          17 85 rmoveto
          12 11 7 58 -5 30 -9 8 rcurveline
          -36 10 -31 5 -40 3 -11 -5 rcurveline
          -11 -19 -8 -52 2 -29 9 -8 rcurveline
          -12 37 37 -6 36 hhcurveto
          endchar
        </CharString>
        <CharString name="f">
          -178 21 -21 409 77 171 83 hstem
          128 -3 callgsubr
          413 495 rmoveto
          -45 -3 -54 -4 -57 -2 rrcurveto
          41 vlineto
          52 4 53 11 17 vhcurveto
          5 8 17 3 10 hhcurveto
          38 47 -25 -45 53 hvcurveto
          29 37 16 39 15 34 rrcurveto
          20 -48 -78 23 -67 hhcurveto
          -138 -46 -95 -104 hvcurveto
          -54 vlineto
          -58 3 -30 -84 31 3 30 1 27 1 rlinecurve
          -226 vlineto
          -55 -5 -73 -12 -35 vhcurveto
          -22 175 12 callgsubr
          34 -14 90 62 vvcurveto
          201 vlineto
          33 -2 42 -4 45 -6 rrcurveto
          endchar
        </CharString>
        <CharString name="five">
          10 -11 79 275 84 191 82 3 -20 hstemhm
          414 139 hintmask 11101000
          376 81 rmoveto
          -10 -23 -30 -3 -23 hhcurveto
          -98 -96 69 23 -32 hvcurveto
          -24 -22 -31 -54 -5 -28 rrcurveto
          -35 71 101 -32 91 hhcurveto
          167 109 104 134 164 -140 28 -155 8 hvcurveto
          -68 3 11 73 9 55 20 60 rlinecurve
          52 hlineto
          35 58 -7 -10 36 hvcurveto
          26 -7 39 -15 25 -22 rrcurveto
          19 hlineto
          hintmask 11011000
          -25 146 -354 -5 -21 -105 -20 -107 -14 -107 rlinecurve
          25 -27 133 -9 rlineto
          105 -7 65 -39 -84 vvcurveto
          -41 -13 -61 -25 -30 vhcurveto
          endchar
        </CharString>
        <CharString name="four">
          41 21 -21 187 90 437 -20 hstem
          341 124 vstem
          558 187 rmoveto
          21 93 -114 -6 rlineto
          201 1 153 4 86 vhcurveto
          -155 -15 -101 -145 -109 -163 -89 -150 rlinecurve
          28 -55 rlineto
          1 75 91 0 128 hhcurveto
          -10 vlineto
          -70 -5 -42 -7 -43 vhcurveto
          -22 153 22 vlineto
          -7 44 -5 47 74 vvcurveto
          -127 85 rmoveto
          -2 -65 -97 -1 -45 hhcurveto
          56 95 73 108 79 114 1 -103 -1 -136 -1 -75 rrcurveto
          endchar
        </CharString>
        <CharString name="g">
          4 -235 57 318 57 244 58 hstemhm
          29 127 -90 133 -133 148 173 133 -108 155 hintmask 11110001
          171 165 rmoveto
          hintmask 11101010
          -43 -20 -56 -22 -43 vvcurveto
          -18 14 -23 44 -20 vhcurveto
          -74 -29 -27 -45 -47 vvcurveto
          -108 152 -25 97 147 142 57 118 82 -69 18 -137 25 vhcurveto
          -73 13 -74 12 21 vvcurveto
          12 13 13 12 10 vhcurveto
          -4 16 24 -2 21 hhcurveto
          127 93 70 111 hvcurveto
          hintmask 11110001
          34 -9 28 -17 29 vhcurveto
          101 hlineto
          -33 70 rlineto
          -8 -57 -40 -2 -40 hhcurveto
          17 -34 -39 10 -53 hhcurveto
          -130 -103 -62 -116 -76 44 -51 61 -29 hvcurveto
          28 163 rmoveto
          39 11 37 16 23 vhcurveto
          10 18 28 4 16 hhcurveto
          76 23 -52 -63 hvcurveto
          hintmask 11100110
          -39 -6 -50 -21 -26 vhcurveto
          -8 -9 -27 -6 -23 hhcurveto
          -86 -16 79 52 hvcurveto
          9 -337 rmoveto
          22 -4 34 -7 36 -9 rrcurveto
          67 -17 45 -6 -48 vvcurveto
          -60 -63 -18 -52 -56 -85 25 75 22 6 32 31 18 vhcurveto
          endchar
        </CharString>
        <CharString name="germandbls">
          73 -22 82 -51 -21 663 84 hstemhm
          124 132 44 116 9 120 -35 128 hintmask 10111010
          300 383 rmoveto
          -85 67 -39 59 -32 vhcurveto
          43 -24 41 -23 -45 vvcurveto
          -21 -3 -39 -9 -9 vhcurveto
          -4 -8 -15 -2 -8 hhcurveto
          -49 -62 46 33 -27 hvcurveto
          -22 -39 -11 -33 -1 -42 rrcurveto
          -33 45 58 -14 48 hhcurveto
          6 hlineto
          113 2 73 61 101 vvcurveto
          99 -75 40 -63 31 vhcurveto
          -43 22 -41 21 44 vvcurveto
          44 28 21 28 21 vhcurveto
          hintmask 01111100
          36 27 37 27 58 vvcurveto
          99 -79 38 -91 1 vhcurveto
          -4 hlineto
          -141 -106 -104 -140 hvcurveto
          -34 vlineto
          -55 3 -34 -80 rlineto
          2 35 30 1 24 hhcurveto
          -215 vlineto
          -53 -5 -71 -13 -35 callgsubr
          150 538 vlineto
          54 5 41 14 18 vhcurveto
          7 11 17 5 26 hhcurveto
          56 40 -17 -45 -33 -22 -18 -25 -20 hvcurveto
          -37 -30 -41 -34 -71 vvcurveto
          endchar
        </CharString>
        <CharString name="grave">
          -68 526 -21 227 -20 hstem
          391 544 -97 callsubr
        </CharString>
        <CharString name="grave.cap">
          12 callsubr
          399 798 -29 callsubr
        </CharString>
        <CharString name="greater">
          -57 66 -21 555 -20 hstem
          9 45 rmoveto
          516 242 rlineto
          70 vlineto
          -516 243 rlineto
          -92 vlineto
          398 -186 -398 -186 rlineto
          endchar
        </CharString>
        <CharString name="guillemotleft">
          41 85 -21 393 -20 hstem
          297 253 -43 callgsubr
          -220 -23 -43 callgsubr
          endchar
        </CharString>
        <CharString name="guillemotright">
          40 85 -21 393 -20 hstem
          342 276 -46 callgsubr
          234 23 -46 callgsubr
          endchar
        </CharString>
        <CharString name="guilsinglleft">
          -193 77 -21 396 -20 hstem
          64 248 rmoveto
          39 -33 124 -106 9 -7 23 -23 22 -23 rlinecurve
          61 58 -137 142 108 112 28 31 -58 53 -21 callgsubr
          endchar
        </CharString>
        <CharString name="guilsinglright">
          -193 74 -21 396 -20 hstem
          341 268 -26 callsubr
          -58 -53 28 -31 108 -112 -137 -142 61 -58 22 23 23 23 9 7 rlinecurve
          124 106 39 33 rlineto
          endchar
        </CharString>
        <CharString name="h">
          56 -16 callgsubr
          247 -18 callgsubr
          209 -3 callgsubr
          224 353 -75 callgsubr
        </CharString>
        <CharString name="hbar">
          56 -16 callgsubr
          41 76 130 -18 callgsubr
          209 -3 callgsubr
          -37 534 rmoveto
          0 104 6 57 vhcurveto
          144 56 -6 16 hhcurveto
          14 hlineto
          37 86 rlineto
          -1 -56 -111 -3 -21 -54 -76 2 -59 hhcurveto
          -14 hlineto
          224 -265 -75 callgsubr
        </CharString>
        <CharString name="hyphen">
          -60 callsubr
        </CharString>
        <CharString name="i">
          -277 21 -21 hstem
          107 -3 callgsubr
          206 -69 callgsubr
          endchar
        </CharString>
        <CharString name="iacute">
          -288 21 -21 732 -20 hstem
          127 11 callgsubr
          259 -71 callsubr
          -131 113 -104 callgsubr
        </CharString>
        <CharString name="icircumflex">
          -194 9 -21 737 -20 hstem
          137 11 callgsubr
          137 136 rmoveto
          -36 -7 callsubr
          59 59 vvcurveto
          230 vlineto
          33 0 20 4 30 vhcurveto
          -14 22 -174 -28 rlineto
          -26 vlineto
          32 -20 20 -44 -52 vvcurveto
          -16 386 rmoveto
          -25 -65 -46 -46 -48 -49 53 -45 rcurveline
          33 32 44 46 30 36 30 -37 60 -57 35 -27 54 51 rcurveline
          -49 53 -45 47 -27 75 rrcurveto
          endchar
        </CharString>
        <CharString name="idieresis">
          -189 9 -21 562 127 8 -20 hstemhm
          137 132 hintmask 11010000
          147 677 rmoveto
          -22 hlineto
          -25 -2 -26 -4 -34 -11 -17 -15 rcurveline
          -23 8 -45 11 -21 vhcurveto
          21 -6 rlineto
          17 hlineto
          32 2 18 3 36 12 14 12 rcurveline
          1 7 1 6 6 vvcurveto
          26 -8 33 -12 12 vhcurveto
          hintmask 10110000
          161 16 rmoveto
          -22 hlineto
          -25 -1 -27 -4 -32 -11 -17 -14 rcurveline
          -24 7 -45 12 -22 vhcurveto
          20 -5 rlineto
          17 hlineto
          33 2 17 3 37 11 14 12 rcurveline
          1 8 0 6 5 vvcurveto
          26 -7 34 -12 12 vhcurveto
          -202 -543 rmoveto
          -35 -7 callsubr
          58 60 vvcurveto
          230 vlineto
          32 0 21 3 30 vhcurveto
          -13 21 -174 -28 rlineto
          -25 vlineto
          31 -21 21 -44 -51 vvcurveto
          endchar
        </CharString>
        <CharString name="igrave">
          -256 21 -21 732 -20 hstem
          94 11 callgsubr
          226 -71 callsubr
          5 151 -97 callsubr
        </CharString>
        <CharString name="ij">
          12 -229 -21 271 -21 hstem
          110 129 169 -3 callgsubr
          209 -69 callgsubr
          298 205 -76 callsubr
        </CharString>
        <CharString name="itilde">
          -97 21 -21 604 17 callgsubr
          194 132 hintmask 11010000
          326 -71 callsubr
          1 163 -88 callgsubr
          hintmask 10110000
          -57 callgsubr
        </CharString>
        <CharString name="j">
          16 callgsubr
          -4 callgsubr
          384 -76 callsubr
        </CharString>
        <CharString name="jcircumflex">
          16 callgsubr
          953 -20 -4 callgsubr
          114 rmoveto
          -196 -65 -58 -68 -63 vhcurveto
          -12 -11 -39 -36 -48 47 6 5 22 18 13 16 rlinecurve
          42 47 20 67 202 vvcurveto
          150 vlineto
          79 -36 52 -31 14 vhcurveto
          22 vlineto
          190 34 12 -20 rlineto
          -6 -27 0 -41 -31 vvcurveto
          -134 319 -105 callgsubr
        </CharString>
        <CharString name="k">
          -8 21 -20 callsubr
          vstem
          241 hmoveto
          -83 callsubr
        </CharString>
        <CharString name="kcommaaccent">
          -8 -215 -21 257 -20 callsubr
          56 104 vstem
          384 -79 callgsubr
          -143 83 rmoveto
          -83 callsubr
        </CharString>
        <CharString name="kgreenlandic">
          9 21 -21 500 -20 hstem
          109 11 callgsubr
          241 218 rmoveto
          91 -102 30 -33 25 -26 17 -20 rlinecurve
          14 -17 8 -12 -8 vvcurveto
          189 14 hlineto
          -41 16 -40 35 -27 27 -190 190 rcurveline
          146 115 31 25 36 29 38 5 rlinecurve
          30 -154 -26 callgsubr
          60 vlineto
          23 -5 39 -12 24 vhcurveto
          -11 19 -164 -22 callgsubr
          178 -24 callsubr
          70 vvcurveto
          endchar
        </CharString>
        <CharString name="l">
          -294 -61 callgsubr
          endchar
        </CharString>
        <CharString name="ldot">
          28 -61 callgsubr
          305 176 rmoveto
          14 -13 8 -71 -6 -34 -10 -9 rcurveline
          -41 -12 -50 6 callsubr
          66 1 31 10 9 rcurveline
          43 14 56 8 42 -1 rrcurveto
          endchar
        </CharString>
        <CharString name="less">
          -55 66 -21 555 -20 hstem
          526 136 rmoveto
          -398 186 398 186 rlineto
          92 vlineto
          -516 -243 rlineto
          -70 vlineto
          516 -242 rlineto
          endchar
        </CharString>
        <CharString name="logicalnot">
          -22 142 -21 217 89 hstem
          474 91 vstem
          565 121 rmoveto
          306 -561 -89 470 -217 vlineto
          endchar
        </CharString>
        <CharString name="lslash">
          -260 21 -21 746 -20 hstem
          4 229 -129 129 -129 223 vstem
          2 294 rmoveto
          145 57 48 18 61 23 69 22 rlinecurve
          4 76 -47 -17 -59 -23 -47 -18 rlinecurve
          -47 -18 -53 -20 -69 -23 rrcurveto
          226 158 -72 callgsubr
          endchar
        </CharString>
        <CharString name="m">
          338 -16 callgsubr
          1 -20 hstemhm
          112 129 178 119 177 129 hintmask 10111100
          236 417 rmoveto
          -2 25 -1 18 -9 21 -10 19 rcurveline
          -162 -31 rlineto
          -22 vlineto
          34 -17 26 -53 callsubr
          174 vlineto
          25 41 32 17 43 hhcurveto
          51 11 -44 -69 hvcurveto
          -132 vlineto
          -36 -5 -59 -12 -33 vhcurveto
          -22 166 12 callgsubr
          35 -15 62 62 vvcurveto
          137 vlineto
          hintmask 11011100
          15 -1 14 -1 13 vhcurveto
          21 37 32 14 43 hhcurveto
          56 11 -44 -69 hvcurveto
          -132 vlineto
          -36 -45 callgsubr
          62 vvcurveto
          137 vlineto
          118 -57 63 -100 -60 -52 -41 -43 -52 vhcurveto
          55 -20 -41 29 -65 hhcurveto
          -63 -45 -35 -47 -53 hvcurveto
          endchar
        </CharString>
        <CharString name="macron">
          -91 597 77 hstem
          387 597 rmoveto
          77 -274 -77 vlineto
          endchar
        </CharString>
        <CharString name="mu">
          52 -219 -21 227 96 397 -20 hstem
          88 -40 callgsubr
          vstem
          88 96 rmoveto
          -88 7 -110 16 -138 vhcurveto
          200 30 -3 19 -40 22 -28 35 -19 29 rlinecurve
          -15 23 -15 40 -6 49 rrcurveto
          -16 24 32 -4 18 hhcurveto
          59 52 41 31 38 hvcurveto
          2 -28 8 -29 14 -24 157 40 rcurveline
          -62 callgsubr
          endchar
        </CharString>
        <CharString name="multiply">
          21 100 -21 441 -20 hstem
          72 150 rmoveto
          74 -71 48 46 60 58 51 48 rlinecurve
          162 -152 73 70 -50 47 -60 55 -52 48 rlinecurve
          160 150 -73 71 -159 -152 -160 152 -74 -70 161 -150 rlineto
          endchar
        </CharString>
        <CharString name="n">
          52 -16 callgsubr
          1 -20 hstemhm
          109 -40 callgsubr
          hintmask 10111000
          233 417 rmoveto
          -2 26 -1 14 -8 24 -11 19 rcurveline
          -162 -22 callgsubr
          175 vlineto
          hintmask 11011000
          -24 callsubr
          70 vvcurveto
          164 vlineto
          25 42 35 17 46 hhcurveto
          56 12 -60 callgsubr
          -57 63 -100 -62 -50 -37 -45 -56 vhcurveto
          endchar
        </CharString>
        <CharString name="nacute">
          55 -16 callgsubr
          233 -20 hstem
          112 -40 callgsubr
          vstem
          236 -74 callsubr
          35 89 -104 callgsubr
        </CharString>
        <CharString name="nine">
          66 9 -21 243 90 316 74 hstem
          58 144 241 -1 callsubr
          275 231 rmoveto
          53 53 15 18 39 hvcurveto
          -13 -42 -20 -43 -33 -35 -49 -52 -80 -34 -73 -13 17 -57 rcurveline
          93 12 89 20 73 51 rrcurveto
          95 68 68 107 166 vvcurveto
          215 -114 84 -151 -173 -91 -109 -151 -171 119 -49 98 vhcurveto
          168 210 rmoveto
          -34 -3 -29 -2 -27 vhcurveto
          -14 -30 -48 -16 -43 hhcurveto
          -69 -46 43 108 67 17 57 21 27 hvcurveto
          11 19 32 3 23 hhcurveto
          100 29 -66 -130 hvcurveto
          endchar
        </CharString>
        <CharString name="ntilde">
          52 -16 callgsubr
          105 17 callgsubr
          109 -40 callgsubr
          hintmask 11101100
          233 -74 callsubr
          168 139 -88 callgsubr
          hintmask 11011100
          -57 callgsubr
        </CharString>
        <CharString name="numbersign">
          18 15 -21 205 93 97 93 224 -20 hstem
          536 199 rmoveto
          20 93 rlineto
          -111 hlineto
          13 79 3 18 rlineto
          112 hlineto
          19 93 rlineto
          -116 hlineto
          11 65 8 45 5 24 8 36 7 25 5 15 -2 -5 callsubr
          -134 hlineto
          11 62 7 43 5 23 8 36 7 27 6 19 -3 -5 callsubr
          -119 hlineto
          -25 -93 rlineto
          129 hlineto
          -17 -97 rlineto
          -125 hlineto
          -22 -93 rlineto
          130 -6 callsubr
          20 162 rlineto
          5 2 14 3 24 vhcurveto
          131 -6 callsubr
          6 51 4 49 10 68 rrcurveto
          4 1 12 3 21 vhcurveto
          -187 166 rmoveto
          4 24 rlineto
          134 hlineto
          -17 -97 rlineto
          -133 hlineto
          3 21 4 25 5 27 rrcurveto
          endchar
        </CharString>
        <CharString name="o">
          -23 callgsubr
          -99 callsubr
          endchar
        </CharString>
        <CharString name="oacute">
          -73 callgsubr
          -166 278 -104 callgsubr
        </CharString>
        <CharString name="ocircumflex">
          -23 callgsubr
          205 -20 -99 callsubr
          -159 475 -105 callgsubr
        </CharString>
        <CharString name="odieresis">
          -23 callgsubr
          55 129 11 -20 -70 callsubr
          -175 454 -107 callgsubr
          hintmask 11011100
          -106 callgsubr
        </CharString>
        <CharString name="oe">
          349 -19 64 -64 92 150 63 148 65 -1 -20 hstemhm
          44 -12 callgsubr
          168 -8 callsubr
          hintmask 01110111
          875 -88 callsubr
          -80 -65 -34 -51 -45 vhcurveto
          hintmask 10101111
          53 -41 -67 31 -96 hhcurveto
          -52 callsubr
          -148 91 -101 161 80 69 34 53 48 hvcurveto
          -57 45 68 -30 63 hhcurveto
          -33 callgsubr
          hvcurveto
          -480 138 -92 callgsubr
          hintmask 10110111
          -67 callsubr
          169 53 -83 callgsubr
          endchar
        </CharString>
        <CharString name="ograve">
          -73 callgsubr
          -30 316 -97 callsubr
        </CharString>
        <CharString name="one">
          -168 21 -9 callgsubr
          165 134 vstem
          203 700 rmoveto
          -49 -33 -63 -22 -71 -12 11 -57 rcurveline
          44 2 47 5 40 8 rrcurveto
          3 -17 0 -39 -29 vvcurveto
          -286 vlineto
          -85 -7 -79 -37 callgsubr
          166 -39 callgsubr
          -7 75 89 vvcurveto
          362 vlineto
          5 118 rlineto
          endchar
        </CharString>
        <CharString name="onehalf">
          279 0 65 -64 -21 400 53 292 -20 hstemhm
          117 104 489 107 hintmask 01111100
          591 718 -51 callsubr
          137 -640 rmoveto
          -16 14 rlineto
          hintmask 10111100
          -30 -22 -65 -9 -53 -3 rrcurveto
          -57 callsubr
          -675 700 -82 callsubr
          endchar
        </CharString>
        <CharString name="onequarter">
          231 5 callgsubr
          560 -20 hstemhm
          117 104 395 102 hintmask 01111100
          719 99 -55 callgsubr
          hintmask 10011100
          -3 120 3 vlineto
          hintmask 01111100
          -5 20 -4 35 41 vvcurveto
          -126 619 rmoveto
          -17 -26 -41 -60 -29 -42 -14 -21 -11 -17 -7 -9 -50 callsubr
          226 323 84 77 rlinecurve
          -15 15 rlineto
          -567 -25 -82 callsubr
          392 -536 -22 callsubr
          endchar
        </CharString>
        <CharString name="onesuperior">
          -299 293 -21 428 -20 hstem
          117 104 vstem
          134 700 -82 callsubr
          endchar
        </CharString>
        <CharString name="ordfeminine">
          -219 394 49 -49 185 -166 -21 274 48 hstemhm
          29 90 96 90 hintmask 00111100
          214 470 rmoveto
          -15 -12 -26 -12 -16 hhcurveto
          -23 -18 13 31 11 3 16 4 10 hvcurveto
          8 9 21 3 15 hhcurveto
          11 20 -4 -5 12 hvcurveto
          10 -92 rmoveto
          4 -17 6 -11 6 -14 97 18 rcurveline
          -3 14 rlineto
          hintmask 01011100
          -18 14 -11 34 37 vvcurveto
          103 vlineto
          67 -52 35 -80 -40 -47 -10 -14 -44 vhcurveto
          2 -25 18 -37 16 -19 rrcurveto
          hintmask 10011100
          23 25 41 34 20 hhcurveto
          36 15 -24 -30 hvcurveto
          -35 vlineto
          -55 2 rlineto
          -77 -54 -22 -76 -59 46 -28 63 40 31 21 19 15 hvcurveto
          endchar
        </CharString>
        <CharString name="ordmasculine">
          -182 394 54 211 55 hstem
          40 96 137 96 vstem
          40 548 rmoveto
          -91 58 -63 102 96 73 78 88 92 -51 62 -108 -97 -73 -78 -88 vhcurveto
          233 -1 rmoveto
          -28 -6 -40 -15 -20 vhcurveto
          -8 -10 -18 -3 -9 hhcurveto
          -62 -17 51 63 30 8 38 14 18 hvcurveto
          8 10 17 3 14 hhcurveto
          60 14 -48 -64 hvcurveto
          endchar
        </CharString>
        <CharString name="oslash">
          3 -73 -21 75 64 389 64 69 -20 hstem
          31 -38 callsubr
          vstem
          412 559 rmoveto
          -11 -25 -11 -24 -11 -21 rrcurveto
          6 -24 -27 3 -29 hhcurveto
          -52 callsubr
          -87 31 -70 58 -44 hvcurveto
          -26 -40 -24 -36 -20 -26 -2 -21 rcurveline
          107 18 11 26 12 23 11 22 rlinecurve
          -9 28 31 -5 35 hhcurveto
          -51 callgsubr
          95 -33 75 -69 42 hvcurveto
          20 33 18 28 16 22 2 22 rcurveline
          -98 -339 -73 callsubr
          -33 -26 10 17 -20 hvcurveto
          39 71 61 114 59 102 rrcurveto
          14 -35 5 -45 -51 vvcurveto
          -232 26 rmoveto
          53 13 73 23 32 vhcurveto
          16 18 27 6 25 hhcurveto
          24 20 -6 -9 16 hvcurveto
          -5 -10 -25 -46 -60 -112 -63 -108 rlinecurve
          -9 32 -4 38 41 vvcurveto
          endchar
        </CharString>
        <CharString name="otilde">
          -23 callgsubr
          58 93 -45 88 -70 callsubr
          -35 328 -56 callsubr
        </CharString>
        <CharString name="p">
          42 -222 -21 225 77 349 91 1 -20 hstemhm
          100 129 215 144 hintmask 11101100
          352 59 -40 callsubr
          -252 -149 rmoveto
          -91 -1 -23 -3 -39 vhcurveto
          173 21 rlineto
          hintmask 11011100
          22 vlineto
          -33 37 -7 59 68 vvcurveto
          27 vlineto
          -5 -32 callgsubr
          hintmask 11101100
          16 0 18 2 15 vhcurveto
          -12 19 -163 -39 2 -22 rlineto
          30 -17 19 -61 -57 vvcurveto
          endchar
        </CharString>
        <CharString name="paragraph">
          95 -243 -21 894 65 3 -20 hstemhm
          275 87 67 87 hintmask 11011000
          429 -102 rmoveto
          -39 -4 -60 -7 -49 vhcurveto
          4 -14 9 callsubr
          743 vlineto
          48 -1 31 -4 33 -9 rrcurveto
          14 hlineto
          hintmask 10111000
          31 82 -396 -5 rlineto
          -160 -2 -112 -92 -148 vvcurveto
          -132 98 -128 172 -2 vhcurveto
          -230 vlineto
          -37 -4 -56 -7 -47 vhcurveto
          4 -13 9 callsubr
          hintmask 11011000
          224 0 219 3 230 vhcurveto
          64 hlineto
          endchar
        </CharString>
        <CharString name="parenleft">
          8 callgsubr
          73 122 vstem
          385 757 rmoveto
          -93 -32 -91 -66 -55 -88 rrcurveto
          -45 -73 -28 -100 -112 vvcurveto
          -267 153 -148 159 -55 vhcurveto
          9 3 11 19 9 17 3 18 rlinecurve
          -156 62 -66 112 231 vvcurveto
          187 42 164 180 70 vhcurveto
          -5 21 -10 19 -8 15 rrcurveto
          endchar
        </CharString>
        <CharString name="parenright">
          8 callgsubr
          254 122 vstem
          55 754 rmoveto
          -8 -15 -10 -19 -5 -21 rrcurveto
          180 -70 42 -164 -187 vvcurveto
          -231 -66 -112 -156 -62 vhcurveto
          3 -18 9 -17 11 -19 9 -3 rcurveline
          159 55 153 148 267 vvcurveto
          112 -28 100 -45 73 vhcurveto
          -55 88 -91 66 -93 32 rrcurveto
          endchar
        </CharString>
        <CharString name="percent">
          260 -18 63 -43 -21 310 63 -24 66 243 66 15 -20 hstemhm
          26 94 137 94 136 94 137 94 hintmask 1010101111000000
          585 716 rmoveto
          0 -110 -205 -18 -32 vhcurveto
          -49 -88 -183 -315 -62 -89 -1 -6 rcurveline
          105 8 rlineto
          0 109 205 18 32 vhcurveto
          49 88 183 311 62 89 1 6 rcurveline
          -202 -524 -31 callgsubr
          hintmask 1001101111000000
          1 callgsubr
          -35 callsubr
          -692 325 -31 callgsubr
          1 callgsubr
          hintmask 0110011111000000
          -35 callsubr
          endchar
        </CharString>
        <CharString name="period">
          -250 11 -21 hstem
          240 142 rmoveto
          -42 1 -53 7 callsubr
          -63 13 -22 12 -6 rcurveline
          46 4 47 4 callgsubr
          68 -14 13 rrcurveto
          endchar
        </CharString>
        <CharString name="periodcentered">
          -268 216 -21 hstem
          221 350 rmoveto
          -42 1 -56 7 callsubr
          -66 13 -22 12 -6 rcurveline
          46 4 50 4 callgsubr
          71 -14 13 rrcurveto
          endchar
        </CharString>
        <CharString name="plus">
          57 66 -21 220 87 213 -20 hstem
          267 105 vstem
          268 565 rmoveto
          -1 -213 -224 2 callsubr
          225 -220 105 220 233 hlineto
          1 87 rlineto
          -234 212 hlineto
          endchar
        </CharString>
        <CharString name="plusminus">
          9 0 87 282 87 207 -20 hstem
          252 89 vstem
          253 663 rmoveto
          -1 -207 -209 2 callsubr
          210 -206 89 206 216 hlineto
          1 87 rlineto
          -217 206 hlineto
          217 -575 rmoveto
          -515 2 callsubr
          515 hlineto
          endchar
        </CharString>
        <CharString name="q">
          -5 -220 -21 223 89 356 72 hstem
          44 144 213 -3 callgsubr
          401 -20 rmoveto
          -75 -8 -71 -32 -42 vhcurveto
          -22 vlineto
          173 -11 rlineto
          -3 39 -1 21 91 vvcurveto
          439 vlineto
          78 3 39 3 23 vhcurveto
          -8 4 -34 7 -8 -1 -41 -27 rcurveline
          13 -34 -51 14 -50 hhcurveto
          -157 -109 -119 -144 -133 70 -121 155 56 37 20 38 39 hvcurveto
          -172 374 rmoveto
          4 4 25 9 28 hhcurveto
          30 48 -6 -17 37 hvcurveto
          -293 vlineto
          -19 -26 -45 -21 -31 hhcurveto
          -82 -29 97 87 58 12 65 29 36 hvcurveto
          endchar
        </CharString>
        <CharString name="question">
          -107 10 -21 632 92 hstem
          313 134 vstem
          313 531 rmoveto
          -89 -82 -81 -76 -53 vhcurveto
          -20 -14 1 -28 -5 -29 -6 -27 rlinecurve
          -19 vlineto
          -5 27 21 -1 18 hhcurveto
          15 20 2 5 26 hvcurveto
          18 vlineto
          -8 27 -4 16 17 vvcurveto
          6 vlineto
          42 21 165 89 158 vvcurveto
          116 -85 53 -130 -41 -76 -7 -24 -70 vhcurveto
          -3 -47 14 -45 25 -35 rrcurveto
          49 64 50 17 34 hhcurveto
          58 26 -35 -55 hvcurveto
          -67 -423 rmoveto
          12 -11 7 -54 -5 -30 -9 -8 rcurveline
          -33 -10 -25 -3 -40 -3 -11 5 rcurveline
          -11 19 -7 50 1 27 9 8 rcurveline
          35 11 33 6 33 -1 rrcurveto
          endchar
        </CharString>
        <CharString name="questiondown">
          -107 -232 92 632 -20 hstem
          37 134 vstem
          171 -50 rmoveto
          89 82 81 76 53 vhcurveto
          20 14 -1 28 5 29 6 27 rlinecurve
          19 vlineto
          5 -27 -21 1 -18 hhcurveto
          -15 -20 -2 -5 -26 hvcurveto
          -18 vlineto
          8 -27 4 -16 -17 vvcurveto
          -6 vlineto
          -42 -21 -165 -89 -158 vvcurveto
          -116 85 -53 130 41 76 7 24 70 vhcurveto
          3 47 -14 45 -25 35 rrcurveto
          -49 -64 -50 -17 -34 hhcurveto
          -58 -26 35 55 hvcurveto
          78 417 rmoveto
          33 -1 33 6 35 11 9 8 rcurveline
          1 27 -7 50 -11 19 -11 5 rcurveline
          -40 -3 -25 -3 -33 -10 -9 -8 rcurveline
          -5 -30 7 -54 12 -11 rrcurveto
          endchar
        </CharString>
        <CharString name="quotedbl">
          -84 443 -21 282 -20 hstem
          206 698 -63 callsubr
          166 11 -63 callsubr
          endchar
        </CharString>
        <CharString name="quotedblbase">
          -77 -172 -21 hstem
          126 119 73 -61 callsubr
          192 hmoveto
          -81 callgsubr
          endchar
        </CharString>
        <CharString name="quotedblleft">
          13 callgsubr
          284 472 -41 callsubr
          65 15 callgsubr
          -84 5 callsubr
          -209 -1 -41 callsubr
          66 15 callgsubr
          -85 5 callsubr
          endchar
        </CharString>
        <CharString name="quotedblright">
          13 callgsubr
          229 655 -41 callgsubr
          -65 13 callsubr
          84 4 callsubr
          209 1 -41 callgsubr
          -66 13 callsubr
          85 4 callsubr
          endchar
        </CharString>
        <CharString name="quoteleft">
          7 callgsubr
          89 495 rmoveto
          8 -18 20 -34 11 -12 3 -3 12 -7 4 -2 9 2 22 8 19 11 19 11 17 14 8 8 1 16 rcurveline
          -21 17 -21 24 -9 24 -11 60 23 47 26 47 -64 17 rcurveline
          -38 -51 -45 -66 -1 -65 rrcurveto
          -16 2 -18 6 -14 vhcurveto
          endchar
        </CharString>
        <CharString name="quoteright">
          7 callgsubr
          221 649 rmoveto
          -8 18 -20 34 -11 12 -3 3 -12 7 -4 2 -9 -2 -22 -8 -19 -11 -19 -11 -17 -14 -8 -8 -1 -16 rcurveline
          21 -17 21 -24 9 -24 11 -60 -23 -47 -26 -47 64 -17 rcurveline
          38 51 45 66 1 65 rrcurveto
          16 -2 18 -6 14 vhcurveto
          endchar
        </CharString>
        <CharString name="quotesinglbase">
          -269 -172 -21 hstem
          126 -61 callsubr
          endchar
        </CharString>
        <CharString name="quotesingle">
          -273 443 -21 282 -20 hstem
          202 698 -63 callsubr
          endchar
        </CharString>
        <CharString name="r">
          -179 21 -2 callsubr
          hintmask 11010000
          263 22 -49 callsubr
          hintmask 10110000
          -6 16 -6 16 -6 9 -10 14 rcurveline
          -32 callsubr
          22 vlineto
          endchar
        </CharString>
        <CharString name="rcaron">
          -175 21 -21 387 112 203 -20 hstem
          109 -3 callgsubr
          267 22 rmoveto
          -22 -175 22 vlineto
          11 35 6 61 38 vvcurveto
          149 vlineto
          59 -25 63 -31 18 vhcurveto
          22 vlineto
          141 33 10 -14 6 -9 6 -16 6 -16 rlinecurve
          30 36 46 24 54 hhcurveto
          15 22 -1 -13 28 hvcurveto
          1 -42 -4 -37 -22 -56 rrcurveto
          30 -43 -41 7 -30 hhcurveto
          -12 -16 -2 -4 -18 hvcurveto
          -197 vlineto
          -64 14 -64 15 -34 vhcurveto
          -2 504 -64 callsubr
        </CharString>
        <CharString name="rcommaaccent">
          -179 -215 -21 257 -2 callsubr
          -99 104 hintmask 11101000
          239 -89 callgsubr
          hintmask 11011000
          51 45 42 46 62 vvcurveto
          24 105 -49 callsubr
          -6 16 -6 16 -6 9 rrcurveto
          hintmask 11100100
          -10 14 -32 callsubr
          vlineto
          endchar
        </CharString>
        <CharString name="registered">
          193 -7 70 113 207 125 43 90 70 hstem
          31 81 120 103 106 115 119 78 vstem
          -68 callsubr
          -119 108 rmoveto
          76 -67 22 -99 -3 vhcurveto
          -1 -19 -62 0 -33 -6 -37 1 -10 hhcurveto
          -12 vlineto
          8 -22 1 -36 -25 vvcurveto
          -190 vlineto
          -21 -4 -39 -7 -18 vhcurveto
          -12 121 12 vlineto
          -6 20 -1 41 22 vvcurveto
          76 vlineto
          1 6 -1 1 hhcurveto
          82 -122 23 -34 6 -7 5 -7 rlinecurve
          130 12 hlineto
          -18 6 -25 17 -49 58 -65 78 rcurveline
          70 6 54 40 63 vvcurveto
          -179 52 rmoveto
          46 18 -15 -45 -44 -16 -21 -53 -9 -15 0 1 -13 hvcurveto
          38 0 73 1 11 vhcurveto
          2 11 20 0 10 hhcurveto
          endchar
        </CharString>
        <CharString name="ring">
          -67 528 216 -66 66 hstemhm
          152 65 87 64 hintmask 10110000
          368 641 -46 callsubr
          hintmask 01110000
          -31 callsubr
        </CharString>
        <CharString name="ring.cap">
          -68 696 68 86 68 hstem
          149 67 89 66 vstem
          371 812 rmoveto
          57 -43 48 -63 1 vhcurveto
          -65 1 -51 -50 -67 vvcurveto
          -57 45 -50 63 1 vhcurveto
          65 1 49 48 67 vvcurveto
          -107 -48 rmoveto
          -29 -19 15 35 8 4 15 6 6 hvcurveto
          5 8 13 2 10 hhcurveto
          32 16 -13 -33 -10 -4 -16 -6 -7 hvcurveto
          -5 -8 -13 -2 -10 hhcurveto
          endchar
        </CharString>
        <CharString name="s">
          -87 -11 77 359 67 hstem
          60 123 150 128 vstem
          183 374 rmoveto
          18 6 18 9 8 vhcurveto
          7 17 24 0 8 hhcurveto
          40 61 -25 -57 57 hvcurveto
          32 41 18 33 4 32 rrcurveto
          24 -54 -74 19 -64 hhcurveto
          -102 -105 -48 -98 hvcurveto
          -173 273 54 -107 vvcurveto
          -24 -11 -15 -7 -6 vhcurveto
          -9 -7 -32 -3 -12 1 -58 3 -68 49 -42 39 -34 -42 -9 -39 -2 -30 rrcurveto
          -37 59 65 -20 70 hhcurveto
          121 97 48 109 hvcurveto
          193 -278 -67 102 vvcurveto
          endchar
        </CharString>
        <CharString name="section">
          31 -185 87 734 81 hstem
          47 98 38 81 79 84 37 105 vstem
          313 -98 rmoveto
          -58 -67 38 69 -65 hvcurveto
          -30 -37 -17 -37 -2 -50 rrcurveto
          -45 63 90 -25 65 hhcurveto
          148 129 112 183 141 -83 68 -80 69 hvcurveto
          -71 62 -67 62 -4 117 rrcurveto
          5 16 18 2 14 hhcurveto
          47 56 -32 -49 48 hvcurveto
          24 34 22 56 2 34 rrcurveto
          22 -53 -78 16 -55 hhcurveto
          -132 -146 -81 -177 -117 62 -63 67 -62 hvcurveto
          80 -74 87 -74 -165 vvcurveto
          -1 -10 -10 -1 -10 hhcurveto
          -168 574 rmoveto
          41 10 39 28 26 vhcurveto
          8 -129 77 -62 72 -63 rrcurveto
          68 -59 56 -61 -119 vvcurveto
          -54 -17 -55 -20 -24 vhcurveto
          155 -91 83 -80 77 vhcurveto
          -63 61 -48 57 87 vvcurveto
          endchar
        </CharString>
        <CharString name="semicolon">
          -251 -159 -21 hstem
          109 133 vstem
          242 -58 callsubr
          -64 427 -65 callsubr
          endchar
        </CharString>
        <CharString name="seven">
          -87 18 -21 620 84 3 -20 hstemhm
          hintmask 11000000
          262 -3 rmoveto
          19 114 44 125 42 106 59 149 62 159 23 39 -3 12 rcurveline
          -168 -54 -1 -35 hhcurveto
          hintmask 10100000
          -65 -95 2 2 -70 hvcurveto
          29 -145 rlineto
          17 hlineto
          hintmask 11000000
          37 40 67 21 98 hhcurveto
          27 52 -2 -1 24 hvcurveto
          -39 -95 -41 -86 -42 -88 -49 -103 -58 -108 -69 -115 4 -22 rcurveline
          endchar
        </CharString>
        <CharString name="six">
          65 -10 72 305 88 259 -20 hstem
          70 144 241 -1 callsubr
          382 455 rmoveto
          -59 -53 -18 -25 -39 hvcurveto
          15 51 24 47 33 36 57 61 84 32 60 18 -13 57 rcurveline
          -82 -10 -109 -40 -74 -55 rrcurveto
          -85 -65 -71 -100 -163 vvcurveto
          -208 112 -83 153 178 86 112 140 165 -120 48 -97 vhcurveto
          -168 -201 rmoveto
          24 1 22 1 20 vhcurveto
          22 33 53 25 47 hhcurveto
          60 46 -44 -101 -65 -17 -57 -20 -24 hvcurveto
          -12 -19 -34 -2 -22 hhcurveto
          -100 -29 67 125 hvcurveto
          endchar
        </CharString>
        <CharString name="slash">
          -217 -99 -21 854 -20 hstem
          286 711 rmoveto
          0 -75 -206 -12 -32 vhcurveto
          -33 -86 -164 -397 -48 -88 rrcurveto
          -22 vlineto
          131 34 16 48 15 47 15 39 rlinecurve
          45 119 167 427 63 118 rrcurveto
          22 vlineto
          endchar
        </CharString>
        <CharString name="space">
          -366 endchar
        </CharString>
        <CharString name="sterling">
          -33 -12 83 261 74 300 -20 hstemhm
          102 144 -37 125 hintmask 11101000
          504 -12 rmoveto
          33 142 rlineto
          -22 hlineto
          -51 -32 -107 -23 -114 -4 rrcurveto
          10 10 81 70 76 vvcurveto
          29 -13 40 -15 36 vhcurveto
          27 22 -2 -4 24 hvcurveto
          14 hlineto
          35 80 rlineto
          -1 -55 -48 -3 -49 hhcurveto
          hintmask 11110000
          -17 45 -13 39 34 vvcurveto
          41 19 53 34 19 vhcurveto
          2 17 10 0 9 hhcurveto
          30 51 -13 -37 54 hvcurveto
          25 26 16 22 19 28 rrcurveto
          34 -56 -82 11 -50 hhcurveto
          -146 -94 -94 -95 -38 15 -39 20 -38 hvcurveto
          -18 -33 4 4 -20 hvcurveto
          -14 hlineto
          -36 -83 59 5 60 2 36 1 rlinecurve
          hintmask 11101000
          22 -54 16 -42 -34 vvcurveto
          -60 -38 -66 -100 -20 vhcurveto
          -57 -71 rlineto
          endchar
        </CharString>
        <CharString name="t">
          -168 -11 91 321 86 118 -20 hstem
          117 -3 callgsubr
          403 500 rmoveto
          -50 -5 -46 -6 -61 -2 rrcurveto
          118 vlineto
          -134 -34 3 -26 2 -29 1 -30 rlinecurve
          -20 1 -24 1 -20 3 -36 -90 rcurveline
          39 3 31 3 29 1 rrcurveto
          -318 vlineto
          -63 26 -38 62 62 94 54 23 35 vhcurveto
          -30 45 rlineto
          -13 -31 -50 -18 -20 hhcurveto
          -12 -7 9 27 hvcurveto
          292 vlineto
          32 -1 40 -2 46 -8 rrcurveto
          endchar
        </CharString>
        <CharString name="thorn">
          46 -236 -21 241 77 349 91 240 -20 hstem
          100 126 222 -1 callsubr
          226 636 rmoveto
          32 0 21 3 30 vhcurveto
          -14 22 -165 -27 rlineto
          -24 vlineto
          27 -23 22 -43 -52 vvcurveto
          2 -672 rlineto
          -92 -1 -26 -4 -39 vhcurveto
          180 18 rlineto
          22 vlineto
          -34 39 -9 59 64 vvcurveto
          47 vlineto
          -4 -32 callgsubr
          130 -373 -40 callsubr
          endchar
        </CharString>
        <CharString name="three">
          -28 -10 75 274 72 230 71 hstemhm
          332 134 -87 87 -87 139 hintmask 11100100
          243 -10 rmoveto
          184 91 102 126 126 -93 37 -62 13 hvcurveto
          hintmask 11110000
          49 24 54 57 87 vvcurveto
          117 -96 33 -103 -57 -90 -12 -21 -74 vhcurveto
          5 -39 13 -36 29 -39 rrcurveto
          40 51 66 36 47 hhcurveto
          53 22 -43 -52 -76 -46 -59 -68 hvcurveto
          -109 hlineto
          23 -76 rlineto
          20 hlineto
          3 21 49 1 27 hhcurveto
          hintmask 11101000
          90 40 -33 -93 -62 -17 -45 -27 -25 hvcurveto
          2 1 rlineto
          -17 -28 -37 0 -17 hhcurveto
          -5 hlineto
          -78 -93 65 14 -20 hvcurveto
          -24 -25 -17 -37 -31 vvcurveto
          -6 vlineto
          -28 54 80 -27 91 hhcurveto
          endchar
        </CharString>
        <CharString name="threequarters">
          329 5 callgsubr
          102 61 147 50 128 52 20 -20 14 callsubr
          376 102 hintmask 1001110001100000
          -15 callgsubr
          hintmask 1001110100100000
          -59 callsubr
          hintmask 0111110010100000
          -15 callsubr
          -45 1 -52 -14 callgsubr
          662 -168 -55 callgsubr
          hintmask 1001110100100000
          -3 120 3 vlineto
          hintmask 0111101100100000
          -5 20 -4 35 41 vvcurveto
          -103 65 -22 callsubr
          -25 554 -51 callsubr
          endchar
        </CharString>
        <CharString name="threesuperior">
          -227 267 61 147 50 128 52 14 callsubr
          hintmask 11100100
          -15 callgsubr
          hintmask 11110000
          -59 callsubr
          hintmask 11101000
          -15 callsubr
          -50 1 -47 -14 callgsubr
          endchar
        </CharString>
        <CharString name="tilde">
          -64 556 0 callgsubr
          556 -47 callgsubr
          -42 callsubr
        </CharString>
        <CharString name="tilde.cap">
          -64 781 0 callgsubr
          781 -47 callgsubr
          60 50 -48 58 hhcurveto
          endchar
        </CharString>
        <CharString name="two">
          -1 0 86 551 75 hstem
          366 -1 callsubr
          549 122 rmoveto
          -27 19 -45 -35 -108 -17 -90 -3 rlinecurve
          -1 -24 -34 0 -29 hhcurveto
          141 138 177 180 147 vvcurveto
          100 -81 62 -134 -82 -101 -26 -25 -67 vhcurveto
          4 -40 15 -39 37 -40 rrcurveto
          39 50 80 56 53 hhcurveto
          60 22 -35 -59 -161 -179 -180 -148 -145 hvcurveto
          24 -57 rlineto
          439 hlineto
          endchar
        </CharString>
        <CharString name="twosuperior">
          -193 272 65 315 53 hstem
          238 107 vstem
          364 357 rmoveto
          -16 14 -30 -22 -65 -9 -53 -3 rlinecurve
          -57 callsubr
          endchar
        </CharString>
        <CharString name="u">
          -10 callsubr
          502 -38 callgsubr
          hintmask 10111000
          hintmask 01111000
          586 18 rmoveto
          -62 callgsubr
          -119 vlineto
          -121 30 -64 143 58 52 41 31 37 vhcurveto
          2 -28 8 -29 14 -24 rrcurveto
          endchar
        </CharString>
        <CharString name="uacute">
          -10 callsubr
          754 -96 callsubr
          -316 488 -104 callgsubr
        </CharString>
        <CharString name="ucircumflex">
          -10 callsubr
          725 -96 callsubr
          -307 685 -105 callgsubr
        </CharString>
        <CharString name="udieresis">
          -10 callsubr
          575 129 11 -38 callgsubr
          hintmask 01101100
          -36 callgsubr
          hintmask 10101100
          -97 callgsubr
          hintmask 01101100
          -340 664 -107 callgsubr
          hintmask 10011100
          -106 callgsubr
        </CharString>
        <CharString name="ugrave">
          -10 callsubr
          754 -96 callsubr
          -180 526 -97 callsubr
        </CharString>
        <CharString name="underscore">
          34 -135 91 hstem
          601 -135 rmoveto
          91 -577 -91 vlineto
          endchar
        </CharString>
        <CharString name="uni00AD">
          -60 callsubr
        </CharString>
        <CharString name="v">
          -95 10 -21 505 -20 hstem
          312 -7 rmoveto
          14 52 114 321 23 64 19 24 15 10 rlinecurve
          22 -143 -12 vlineto
          -23 0 -26 -18 -54 vhcurveto
          -68 -215 -61 176 rlineto
          -30 92 -11 31 27 vvcurveto
          12 vlineto
          -172 -13 rlineto
          3 callsubr
          -6 29 -42 15 -41 119 -323 rcurveline
          18 -58 rlineto
          endchar
        </CharString>
        <CharString name="w">
          206 10 -21 504 -20 hstem
          626 -9 rmoveto
          13 54 104 320 21 65 20 25 11 8 rlinecurve
          1 23 rlineto
          -136 -10 hlineto
          -32 -2 -19 -16 -56 vhcurveto
          -8 -30 -13 -37 -46 -143 -59 163 rcurveline
          -33 94 -11 36 23 vvcurveto
          15 vlineto
          -152 -7 -42 callgsubr
          8 -7 11 -21 12 -25 -12 -43 rcurveline
          -8 -29 -27 -65 -40 -112 -60 170 rcurveline
          -32 94 -11 32 23 vvcurveto
          15 vlineto
          -167 -12 rlineto
          11 callsubr
          -6 25 -34 20 -49 131 -323 rcurveline
          18 -58 113 2 11 53 81 226 87 -223 18 -58 rlineto
          endchar
        </CharString>
        <CharString name="x">
          -61 21 -21 486 -20 21 -20 hstemhm
          hintmask 11000000
          331 254 rmoveto
          72 113 34 54 41 33 31 10 rlinecurve
          22 vlineto
          -172 1 rlineto
          -14 vlineto
          -15 -14 -35 -20 -32 vhcurveto
          -34 -53 -35 47 rlineto
          -22 28 -26 38 21 vvcurveto
          14 -187 -22 vlineto
          20 -6 56 -59 39 -53 75 -102 rcurveline
          -83 -129 -31 -48 -48 -36 -27 -9 rlinecurve
          hintmask 10100000
          -22 173 15 vlineto
          1 19 13 28 20 31 44 67 rcurveline
          41 -55 rlineto
          hintmask 11000000
          23 -30 15 -33 -27 vvcurveto
          -15 203 22 vlineto
          -18 7 -51 50 -47 62 rrcurveto
          endchar
        </CharString>
        <CharString name="y">
          -88 -234 -21 748 -20 hstem
          249 -93 callgsubr
          endchar
        </CharString>
        <CharString name="yacute">
          -88 -234 -21 987 -20 hstem
          249 -93 callgsubr
          111 761 -104 callgsubr
        </CharString>
        <CharString name="ydieresis">
          -49 -234 -21 808 -17 callgsubr
          hintmask 11000000
          258 -93 callgsubr
          114 937 -107 callgsubr
          hintmask 10100000
          -106 callgsubr
        </CharString>
        <CharString name="yen">
          5 21 -21 233 89 378 -20 hstem
          596 322 rmoveto
          -4 -54 -45 -3 -40 hhcurveto
          -80 hlineto
          33 64 57 129 33 56 45 80 27 25 16 11 rrcurveto
          20 -145 -22 vlineto
          -16 -11 -41 -14 -36 vhcurveto
          -9 -26 -26 -57 -62 -129 -37 68 -32 62 -31 64 rrcurveto
          -21 43 -13 36 32 vvcurveto
          22 -185 -21 vlineto
          26 -11 66 -96 48 -84 92 -173 rcurveline
          -188 hlineto
          -35 -82 rlineto
          4 54 45 3 40 hhcurveto
          90 -32 hlineto
          -63 -6 -85 -9 -36 vhcurveto
          -24 162 24 vlineto
          -9 36 -6 140 38 vvcurveto
          2 193 vlineto
          endchar
        </CharString>
        <CharString name="z">
          -122 0 82 322 83 2 -20 hstemhm
          hintmask 10100000
          444 426 rmoveto
          -32 60 -343 3 -25 -97 22 -13 rlineto
          19 43 75 6 110 hhcurveto
          hintmask 11000000
          -279 -345 29 -59 rlineto
          366 hlineto
          35 97 -22 6 rlineto
          -10 -38 -98 -11 -116 hhcurveto
          endchar
        </CharString>
        <CharString name="zero">
          151 -11 84 556 85 hstem
          70 144 314 -1 callsubr
          70 364 rmoveto
          -227 107 -148 204 175 116 166 200 207 -88 152 -198 -185 -131 -140 -210 vhcurveto
          458 -29 rmoveto
          -84 -17 -112 -36 -36 vhcurveto
          -20 -18 -44 -10 -18 hhcurveto
          -144 -37 157 155 77 22 100 30 40 hvcurveto
          14 15 41 13 39 hhcurveto
          133 34 -133 -161 hvcurveto
          endchar
        </CharString>
      <CharString index="0">
        -65 callgsubr
        -29 -91 callsubr
        -48 -94 callgsubr
        19 -93 callsubr
        51 -10 11 rrcurveto
        return
      </CharString>
      <CharString index="1">
        202 17 -107 callgsubr
        endchar
      </CharString>
      <CharString index="2">
        rmoveto
        -30 -56 -42 -40 -48 -42 43 -44 rcurveline
        39 29 44 37 31 32 35 -39 51 -40 40 -24 42 45 rcurveline
        -52 44 -43 37 -30 61 rrcurveto
        endchar
      </CharString>
      <CharString index="3">
        rmoveto
        40 20 44 26 41 29 36 26 35 28 26 23 -25 36 -26 21 -48 17 -38 -65 -63 -72 -59 -50 rrcurveto
        endchar
      </CharString>
      <CharString index="4">
        -20 hstem
        -107 callsubr
        return
      </CharString>
      <CharString index="5">
        30 88 -465 -3 -42 callgsubr
        8 -34 9 -92 -76 -54 callgsubr
        479 -86 callgsubr
        53 vlineto
        -81 callsubr
        151 2 46 vhcurveto
        return
      </CharString>
      <CharString index="6">
        475 -88 callsubr
        -160 -102 -136 -143 -154 119 -85 106 -33 callgsubr
        vhcurveto
        -84 callsubr
        return
      </CharString>
      <CharString index="7">
        -20 hstem
        89 142 334 111 vstem
        -103 callsubr
        return
      </CharString>
      <CharString index="8">
        -42 -131 -28 -82 -36 -107 -28 -83 -58 -164 -48 -34 rrcurveto
        -22 168 22 vlineto
        39 1 13 8 37 vhcurveto
        5 20 17 57 14 48 rrcurveto
        1 41 32 0 30 hhcurveto
        49 23 0 -1 38 hvcurveto
        return
      </CharString>
      <CharString index="9">
        hstem
        44 144 -8 callsubr
        vstem
        -101 callgsubr
        return
      </CharString>
      <CharString index="10">
        -31 -37 -52 -41 -58 hhcurveto
        -143 -30 64 121 hvcurveto
        119 vlineto
        65 -15 68 -15 -12 callsubr
        174 -63 callgsubr
        -67 24 -38 41 39 44 21 30 43 vhcurveto
        157 vlineto
        65 -14 68 -15 -12 callsubr
        173 -63 callgsubr
        -61 22 -64 27 -23 vhcurveto
        3 -22 rlineto
        return
      </CharString>
      <CharString index="11">
        273 -98 callsubr
        return
      </CharString>
      <CharString index="12">
        -92 callgsubr
        -67 callsubr
        return
      </CharString>
      <CharString index="13">
        13 -23 vhcurveto
        15 -5 rlineto
        16 hlineto
        35 2 return
      </CharString>
      <CharString index="14">
        -246 rmoveto
        18 vlineto
        15 41 40 116 29 83 129 368 23 65 18 19 rrcurveto
        22 -145 -22 vlineto
        4 -9 1 -8 -9 vvcurveto
        -2 vlineto
        -24 -25 -101 -59 -182 vhcurveto
        -78 209 rlineto
        -36 96 1 26 19 vvcurveto
        14 vlineto
        -173 -11 -42 callgsubr
        30 -25 28 -64 22 -51 51 -117 rcurveline
        92 -212 -42 -111 -46 -59 -44 -54 rlinecurve
        3 -22 rlineto
        return
      </CharString>
      <CharString index="15">
        -73 callsubr
        -103 -30 94 115 53 13 73 23 32 hvcurveto
        return
      </CharString>
      <CharString index="16">
        22 -61 26 -72 -40 vvcurveto
        -22 212 22 vlineto
        -36 29 -24 33 -54 132 rrcurveto
        -35 83 -140 358 58 vvcurveto
        return
      </CharString>
      <CharString index="17">
        -21 callsubr
        233 9 callgsubr
        hintmask 10111110
        -94 callsubr
        -95 callsubr
        -84 callgsubr
        rlineto
        hintmask 01111110
        -49 callgsubr
        return
      </CharString>
      <CharString index="18">
        -83 rmoveto
        14 -5 26 -5 13 vhcurveto
        -10 7 -8 1 -19 -1 -18 -2 rlinecurve
        -19 -2 -22 -4 -8 -3 -3 -2 -3 -4 -1 -3 rrcurveto
        9 -16 8 -21 -21 vvcurveto
        -45 -4 -17 -28 -55 vhcurveto
        43 -18 rlineto
        return
      </CharString>
      <CharString index="19">
        rmoveto
        35 65 79 22 18 hvcurveto
        -27 25 rlineto
        -14 -26 -29 -19 -33 hhcurveto
        return
      </CharString>
      <CharString index="20">
        -24 callgsubr
        609 -103 callgsubr
        return
      </CharString>
      <CharString index="21">
        vlineto
        19 -36 callsubr
        -49 -122 -13 -73 hhcurveto
        -23 -25 0 2 -23 hvcurveto
        -3 33 0 101 67 vvcurveto
        return
      </CharString>
      <CharString index="22">
        rmoveto
        57 -145 14 -66 19 -54 rrcurveto
        -173 hlineto
        15 51 43 142 25 72 rrcurveto
        return
      </CharString>
      <CharString index="23">
        19 61 87 21 70 hhcurveto
        101 103 -43 -127 hvcurveto
        10 callsubr
        -59 22 -63 30 -19 vhcurveto
        2 -22 return
      </CharString>
      <CharString index="24">
        rmoveto
        1 36 11 67 23 36 rrcurveto
        10 15 27 5 17 hhcurveto
        65 16 -69 -75 hvcurveto
        return
      </CharString>
      <CharString index="25">
        rmoveto
        31 0 41 6 27 vhcurveto
        -12 20 -190 -17 callsubr
        -14 36 -52 -79 vvcurveto
        -150 vlineto
        -202 -20 -67 -42 -47 vhcurveto
        -13 -16 -22 -18 -6 -5 48 -47 rcurveline
        39 36 12 11 rlineto
        68 63 65 58 196 vvcurveto
        return
      </CharString>
      <CharString index="26">
        20 -7 37 -7 14 vhcurveto
        -2 4 -6 5 -4 2 -11 1 -23 -1 -24 -3 -24 -3 -26 -7 -12 -4 rrcurveto
        -2 -3 -1 -5 -5 vvcurveto
        17 -18 13 -28 -32 vvcurveto
        -58 -17 -41 -44 -66 vhcurveto
        70 -32 rlineto
        64 67 46 71 85 vvcurveto
        return
      </CharString>
      <CharString index="27">
        rmoveto
        -35 1 -47 -7 -36 -12 -9 -8 rcurveline
        -1 -27 7 -54 11 -19 11 -5 rcurveline
        39 3 41 5 35 10 9 8 rcurveline
        5 30 -7 58 17 callsubr
        return
      </CharString>
      <CharString index="28">
        -89 callgsubr
        51 45 42 46 62 vvcurveto
        return
      </CharString>
      <CharString index="29">
        -20 hstem
        131 -90 callsubr
        return
      </CharString>
      <CharString index="30">
        rmoveto
        40 29 rlineto
        105 76 97 63 241 vvcurveto
        308 vlineto
        -11 callgsubr
        -176 11 callsubr
        -35 6 -89 -75 vvcurveto
        -276 vlineto
        -212 -14 -78 -83 -70 vhcurveto
        -25 -21 -13 -10 -18 -12 rrcurveto
        return
      </CharString>
      <CharString index="31">
        -39 callsubr
        233 -20 -98 callgsubr
        return
      </CharString>
      <CharString index="32">
        rmoveto
        25 46 37 17 51 hhcurveto
        62 13 -60 callgsubr
        -60 63 -106 -64 -50 -35 -46 -58 vhcurveto
        110 vlineto
        33 -66 callsubr
        15 callsubr
        171 22 vlineto
        -16 34 -9 72 60 vvcurveto
        endchar
      </CharString>
      <CharString index="33">
        hstemhm
        49 -33 callsubr
        hintmask 11101100
        -106 callsubr
        return
      </CharString>
      <CharString index="34">
        -23 callgsubr
        234 -20 -99 callsubr
        return
      </CharString>
      <CharString index="35">
        rmoveto
        -3 32 3 135 3 28 -12 22 rcurveline
        -72 callsubr
        -4 15 callsubr
        162 vlineto
        -1 22 rlineto
        -12 39 -4 62 44 vvcurveto
        return
      </CharString>
      <CharString index="36">
        -27 callsubr
        hintmask 10111000
        -89 callsubr
        hintmask 01111000
        -22 vlineto
        return
      </CharString>
      <CharString index="37">
        292 rmoveto
        32 64 61 137 35 63 45 84 27 27 16 11 rrcurveto
        22 -145 -22 vlineto
        -15 -11 -40 -14 -36 vhcurveto
        -9 -25 -26 -56 -62 -126 -37 67 -32 60 -31 63 rrcurveto
        -21 42 -13 35 31 vvcurveto
        22 -185 -22 vlineto
        26 -12 66 -101 48 -89 98 -182 rcurveline
        -100 vlineto
        -59 -6 -79 -37 callgsubr
        162 -39 callgsubr
        -6 128 36 vvcurveto
        return
      </CharString>
      <CharString index="38">
        723 -80 callgsubr
        19 -324 -13 callsubr
        -183 -17 callsubr
        -17 29 -53 callsubr
        return
      </CharString>
      <CharString index="39">
        13 -19 26 5 28 0 17 -5 rlinecurve
        8 -6 4 -11 -9 vvcurveto
        -15 -20 -15 -31 -18 -26 6 11 -21 vhcurveto
        -19 -41 rlineto
        -8 13 61 -27 39 hhcurveto
        62 58 29 58 hvcurveto
        return
      </CharString>
      <CharString index="40">
        -148 91 -101 161 -51 callgsubr
        return
      </CharString>
      <CharString index="41">
        -7 0 74 626 -20 hstem
        124 -6 callgsubr
        108 hmoveto
        -86 callsubr
        return
      </CharString>
      <CharString index="42">
        rmoveto
        -22 hlineto
        -28 -1 return
      </CharString>
      <CharString index="43">
        rmoveto
        -95 -19 -101 -50 -48 vhcurveto
        -19 -34 -44 -9 -41 hhcurveto
        return
      </CharString>
      <CharString index="44">
        -24 vlineto
        -10 -35 -5 -62 -38 vvcurveto
        -133 vlineto
        return
      </CharString>
      <CharString index="45">
        -3 22 rlineto
        -27 23 -22 64 61 vvcurveto
        -34 callgsubr
        -173 3 callsubr
        -34 14 -68 -65 vvcurveto
        10 callsubr
        -30 -43 -44 -21 -39 hhcurveto
        -41 -24 38 67 hvcurveto
        -34 callgsubr
        -174 3 callsubr
        -34 15 -68 -65 vvcurveto
        return
      </CharString>
      <CharString index="46">
        21 -20 callsubr
        vstem
        224 529 -72 callgsubr
        return
      </CharString>
      <CharString index="47">
        -41 -72 hvcurveto
        -125 vlineto
        -43 -45 callgsubr
        72 vvcurveto
        127 vlineto
        118 return
      </CharString>
      <CharString index="48">
        -44 39 rcurveline
        -44 -24 -51 -47 -30 -39 -24 35 -57 49 -45 26 -38 -39 rcurveline
        51 return
      </CharString>
      <CharString index="49">
        hstemhm
        131 142 hintmask 11010000
        -96 callgsubr
        return
      </CharString>
      <CharString index="50">
        -92 callsubr
        -42 callsubr
      </CharString>
      <CharString index="51">
        22 -171 16 callsubr
        -90 -77 vvcurveto
        -254 vlineto
        -87 -6 -80 -37 callgsubr
        171 22 vlineto
        return
      </CharString>
      <CharString index="52">
        rmoveto
        66 hlineto
        12 70 rlineto
        -1 -22 -30 -3 -27 hhcurveto
        124 0 86 2 54 vhcurveto
        -125 -7 -60 -91 -57 -89 -53 -91 rlinecurve
        25 -52 rlineto
        1 41 48 -1 76 hhcurveto
        -5 vlineto
        -1 -38 -2 -33 -4 -20 rrcurveto
        return
      </CharString>
      <CharString index="53">
        vvcurveto
        -253 -44 callgsubr
        return
      </CharString>
      <CharString index="54">
        hvcurveto
        11 callsubr
        -40 5 -80 -37 vvcurveto
        -359 vlineto
        -36 return
      </CharString>
      <CharString index="55">
        38 39 rlineto
        142 -58 95 -136 return
      </CharString>
      <CharString index="56">
        155 113 126 143 return
      </CharString>
      <CharString index="57">
        vlineto
        38 6 127 8 34 vhcurveto
        -56 callgsubr
        -8 34 -6 127 37 vvcurveto
        96 vlineto
        return
      </CharString>
      <CharString index="58">
        -143 -30 -13 25 -9 29 -8 30 rlinecurve
        return
      </CharString>
      <CharString index="59">
        107 76 20 39 58 hvcurveto
        97 64 48 115 135 vvcurveto
        222 -126 106 -264 vhcurveto
        -87 -56 -3 -56 hhcurveto
        -25 -31 1 1 -22 hvcurveto
        -37 callsubr
        8 -89 -76 vvcurveto
        return
      </CharString>
      <CharString index="60">
        -88 callgsubr
        hintmask 00100000
        -85 callsubr
        hintmask 10000000
        return
      </CharString>
      <CharString index="61">
        -26 callsubr
        -47 -47 28 -31 105 -112 -140 -149 53 -54 22 23 23 23 9 7 rlinecurve
        128 107 38 29 rlineto
        return
      </CharString>
      <CharString index="62">
        -5 -59 -12 -33 vhcurveto
        -22 176 12 callgsubr
        35 -15 62 return
      </CharString>
      <CharString index="63">
        vlineto
        -77 -9 -90 -8 -35 callgsubr
        return
      </CharString>
      <CharString index="64">
        rmoveto
        38 -29 128 -107 9 -7 23 -23 22 -23 rlinecurve
        53 54 -140 149 105 112 28 31 -47 47 -21 callgsubr
        return
      </CharString>
      <CharString index="65">
        rlineto
        -22 vlineto
        return
      </CharString>
      <CharString index="66">
        rmoveto
        -9 18 -25 33 -13 11 -17 8 rcurveline
        -11 -2 -20 -8 -22 -13 -20 -12 -18 -16 -8 -8 -1 -16 rcurveline
        23 -17 25 -19 10 -24 13 -60 -27 return
      </CharString>
      <CharString index="67">
        129 191 129 return
      </CharString>
      <CharString index="68">
        22 vlineto
        -9 34 return
      </CharString>
      <CharString index="69">
        -20 hstemhm
        85 -40 callgsubr
        return
      </CharString>
      <CharString index="70">
        -9 -35 callgsubr
        return
      </CharString>
      <CharString index="71">
        429 -22 rmoveto
        -14 24 -8 29 -2 28 rrcurveto
        return
      </CharString>
      <CharString index="72">
        -34 vhcurveto
        -22 return
      </CharString>
      <CharString index="73">
        133 vlineto
        38 5 62 10 35 vhcurveto
        24 return
      </CharString>
      <CharString index="74">
        113 101 93 16 17 return
      </CharString>
      <CharString index="75">
        23 29 -4 32 hhcurveto
        139 136 125 162 124 -87 106 -139 -59 -47 -33 -34 -34 hvcurveto
        return
      </CharString>
      <CharString index="76">
        rmoveto
        -129 58 -85 110 94 63 95 114 118 -47 87 -108 -98 -72 -80 -120 vhcurveto
        return
      </CharString>
      <CharString index="77">
        -46 -79 vvcurveto
        -148 vlineto
        -38 -25 callsubr
        return
      </CharString>
      <CharString index="78">
        rmoveto
        87 7 109 27 70 26 -7 37 -17 44 -34 26 -60 -46 -96 -52 -69 -22 rrcurveto
        endchar
      </CharString>
      <CharString index="79">
        rlineto
        hintmask 01100000
        -1 -54 -45 -3 -40 hhcurveto
        return
      </CharString>
      <CharString index="80">
        49 -37 27 -44 1 vhcurveto
        -5 -13 0 -3 -10 hvcurveto
        return
      </CharString>
      <CharString index="81">
        vlineto
        -14 -8 -11 -15 -12 vhcurveto
        -150 -114 rlineto
        return
      </CharString>
      <CharString index="82">
        2 23 18 0 23 hhcurveto
        return
      </CharString>
      <CharString index="83">
        52 21 -21 237 72 return
      </CharString>
      <CharString index="84">
        17 -19 64 389 64 return
      </CharString>
      <CharString index="85">
        14 callgsubr
        -86 vvcurveto
        -134 vlineto
        -45 -25 callsubr
        return
      </CharString>
      <CharString index="86">
        -162 -140 -26 -22 -17 -7 -21 -12 rlinecurve
        return
      </CharString>
      <CharString index="87">
        -8 callgsubr
        161 132 return
      </CharString>
      <CharString index="88">
        22 -172 -22 vlineto
        return
      </CharString>
      <CharString index="89">
        -20 hstem
        95 129 return
      </CharString>
      <CharString index="90">
        129 11 -20 hstemhm
        return
      </CharString>
      <CharString index="91">
        21 -21 395 104 return
      </CharString>
      <CharString index="92">
        155 267 rmoveto
        111 72 62 77 90 -74 18 -30 3 hvcurveto
        return
      </CharString>
      <CharString index="93">
        36 -10 9 rrcurveto
        -16 -13 -14 -26 -26 vvcurveto
        -22 31 45 -20 56 hhcurveto
        return
      </CharString>
      <CharString index="94">
        34 36 10 20 8 13 12 20 rcurveline
        return
      </CharString>
      <CharString index="95">
        144 232 return
      </CharString>
      <CharString index="96">
        37 6 138 10 -12 callsubr
        return
      </CharString>
      <CharString index="97">
        vhcurveto
        -22 178 22 vlineto
        return
      </CharString>
      <CharString index="98">
        -21 700 -20 hstem
        return
      </CharString>
      <CharString index="99">
        hstemhm
        45 132 return
      </CharString>
      <CharString index="100">
        -17 -29 -59 -11 -85 hhcurveto
        -32 -43 2 3 -39 hvcurveto
        -3 return
      </CharString>
      <CharString index="101">
        142 vstem
        return
      </CharString>
      <CharString index="102">
        -106 -176 62 -43 -21 873 63 2 -20 hstemhm
        return
      </CharString>
      <CharString index="103">
        hstem
        82 -3 callgsubr
        211 return
      </CharString>
      <CharString index="104">
        129 vstem
        return
      </CharString>
      <CharString index="105">
        vlineto
        39 5 67 4 53 vhcurveto
        -128 -44 rlineto
        return
      </CharString>
      <CharString index="106">
        14 hlineto
        33 82 rlineto
        -4 -54 -55 -3 -40 hhcurveto
        return
      </CharString>
      <CharString index="107">
        93 -45 17 callgsubr
        hintmask 01000000
        344 return
      </CharString>
      <CharString index="108">
        231 -16 rmoveto
        -42 -7 -57 -15 -19 vhcurveto
        return
      </CharString>
      <CharString index="109">
        -20 hstemhm
        hintmask 10000000
        return
      </CharString>
      <CharString index="110">
        178 -11 82 return
      </CharString>
      <CharString index="111">
        5 41 12 10 9 rcurveline
        6 34 -8 return
      </CharString>
      <CharString index="112">
        0 165 -164 -21 119 66 return
      </CharString>
      <CharString index="113">
        33 -29 25 -38 -38 -28 -25 -33 vhcurveto
        return
      </CharString>
      <CharString index="114">
        -281 440 -21 306 -20 hstem
        return
      </CharString>
      <CharString index="115">
        -142 -163 -21 941 -20 hstem
        return
      </CharString>
      <CharString index="116">
        -20 -20 callgsubr
        return
      </CharString>
      <CharString index="117">
        -7 -132 16 rrcurveto
        -14 hlineto
        endchar
      </CharString>
      <CharString index="118">
        132 vstem
        return
      </CharString>
      <CharString index="119">
        22 vlineto
        -15 return
      </CharString>
      <CharString index="120">
        -63 422 -21 325 -20 hstem
        return
      </CharString>
      <CharString index="121">
        -31 -42 callgsubr
        34 -17 26 -46 return
      </CharString>
      <CharString index="122">
        18 50 -66 14 rcurveline
        -33 -51 -50 return
      </CharString>
      <CharString index="123">
        -314 -229 -21 return
      </CharString>
      <CharString index="124">
        45 -45 88 hstemhm
        return
      </CharString>
</ttFont>
